<?xml version="1.0" encoding="UTF-8" standalone="no"?>
<svg
   xmlns:dc="http://purl.org/dc/elements/1.1/"
   xmlns:cc="http://web.resource.org/cc/"
   xmlns:rdf="http://www.w3.org/1999/02/22-rdf-syntax-ns#"
   xmlns:svg="http://www.w3.org/2000/svg"
   xmlns="http://www.w3.org/2000/svg"
   xmlns:sodipodi="http://sodipodi.sourceforge.net/DTD/sodipodi-0.dtd"
   xmlns:inkscape="http://www.inkscape.org/namespaces/inkscape"
   width="747pt"
   height="552pt"
   viewBox="0 0 747 552"
   version="1.1"
   id="svg2"
   sodipodi:version="0.32"
   inkscape:version="0.45.1"
   sodipodi:docname="caplogo080713.svg"
   sodipodi:docbase="/Users/dfb/Documents/s/Styles/Logos/crocodile"
   inkscape:output_extension="org.inkscape.output.svg.inkscape">
  <metadata
     id="metadata279">
    <rdf:RDF>
      <cc:Work
         rdf:about="">
        <dc:format>image/svg+xml</dc:format>
        <dc:type
           rdf:resource="http://purl.org/dc/dcmitype/StillImage" />
      </cc:Work>
    </rdf:RDF>
  </metadata>
  <defs
     id="defs277" />
  <sodipodi:namedview
     inkscape:window-height="590"
     inkscape:window-width="777"
     inkscape:pageshadow="2"
     inkscape:pageopacity="0.0"
     guidetolerance="10.0"
     gridtolerance="10.0"
     objecttolerance="10.0"
     borderopacity="1.0"
     bordercolor="#666666"
     pagecolor="#ffffff"
     id="base"
     inkscape:zoom="0.54782609"
     inkscape:cx="466.875"
     inkscape:cy="417.25953"
     inkscape:window-x="20"
     inkscape:window-y="42"
     inkscape:current-layer="svg2" />
  <path
     fill="#9cead8"
     stroke="#9cead8"
     stroke-width="0.09375"
     d=" M 65.4 4.6 C 70.5 2.4 76.5 2.0 81.7 4.4 C 89.9 7.1 91.6 16.7 95.9 23.1 C 100.4 29.2 105.4 35.0 111.4 39.7 C 115.7 43.3 119.5 47.8 124.5 50.6 C 129.6 53.4 134.5 56.4 139.3 59.7 C 145.0 63.6 151.9 64.8 157.9 68.1 C 163.9 70.6 169.5 74.5 176.0 75.5 C 182.1 75.0 187.0 68.9 193.5 70.6 C 200.0 73.1 205.6 77.8 209.4 83.5 C 212.7 88.2 217.3 91.7 220.6 96.3 C 224.3 101.6 229.6 105.9 231.7 112.2 C 234.8 119.6 232.5 128.3 236.5 135.4 C 239.1 140.1 244.0 142.8 249.0 144.1 C 257.5 146.5 266.0 149.1 274.6 151.5 C 278.4 152.5 282.5 153.8 286.4 152.5 C 290.7 151.2 294.9 148.5 299.6 149.5 C 302.8 150.8 304.8 154.0 308.0 155.4 C 313.4 154.4 318.9 152.1 324.4 153.8 C 329.2 155.6 331.9 160.4 336.1 163.2 C 341.3 161.5 344.6 156.0 350.3 155.5 C 354.9 154.8 361.2 155.9 362.6 161.2 C 364.6 165.5 363.3 172.6 368.7 174.4 C 374.8 174.9 380.0 170.6 386.0 170.3 C 390.6 170.0 396.3 169.4 399.7 173.3 C 403.9 178.4 404.9 185.7 410.3 189.8 C 412.3 191.5 414.9 190.0 416.9 189.0 C 422.3 186.0 427.6 182.3 434.0 182.0 C 437.7 181.9 442.5 181.6 445.0 184.9 C 448.5 189.9 448.9 196.5 452.7 201.3 C 453.8 202.7 455.8 203.2 457.3 202.3 C 464.2 199.1 469.8 192.2 478.0 192.2 C 482.4 191.9 487.1 193.6 489.4 197.5 C 491.8 201.6 493.4 206.2 496.9 209.7 C 502.2 207.9 505.7 203.5 510.1 200.2 C 514.1 198.5 519.7 198.6 522.6 202.4 C 526.3 206.1 528.9 211.4 534.0 213.5 C 540.5 211.6 545.1 206.3 550.1 202.1 C 554.2 198.6 561.0 198.2 565.1 201.9 C 568.3 205.2 568.2 210.4 571.4 213.7 C 578.6 211.8 583.1 204.5 590.4 202.6 C 593.7 202.0 597.6 202.3 600.1 204.9 C 604.6 209.1 606.5 215.2 609.6 220.3 C 610.9 222.7 614.1 223.9 616.6 222.7 C 622.8 220.6 627.0 213.8 634.0 214.2 C 641.9 213.5 646.7 221.2 649.4 227.4 C 651.7 231.8 652.1 238.0 657.1 240.1 C 660.9 240.1 664.4 238.4 668.2 238.6 C 672.4 239.1 676.6 241.7 677.9 245.9 C 680.1 252.1 679.4 259.6 684.2 264.7 C 689.1 270.5 696.4 273.0 702.9 276.2 C 712.6 283.5 719.8 293.4 726.5 303.4 C 729.9 309.5 732.6 316.1 735.4 322.5 C 740.3 333.7 743.0 345.8 743.7 358.0 C 745.0 368.9 744.5 380.0 744.6 391.0 C 744.7 398.0 743.5 404.9 742.5 411.8 C 741.2 421.5 737.8 430.7 734.8 439.9 C 732.1 447.1 730.1 454.6 726.2 461.3 C 723.3 466.6 719.2 471.2 716.5 476.7 C 714.8 480.4 711.9 483.3 709.2 486.2 C 705.7 489.8 703.9 494.7 699.9 497.8 C 696.7 500.3 693.7 503.1 691.2 506.3 C 688.1 510.2 683.5 512.5 679.9 515.8 C 677.1 518.4 674.3 521.0 670.9 522.7 C 661.3 527.5 652.3 534.0 641.6 536.4 C 634.5 538.0 627.7 540.5 620.7 542.5 C 612.2 545.0 603.2 545.4 594.5 547.2 C 584.5 549.5 574.1 548.1 564.0 548.7 C 550.7 550.1 537.3 549.8 524.0 548.7 C 516.8 548.6 509.6 547.5 502.5 546.2 C 488.1 543.3 474.3 537.9 459.7 536.2 C 453.8 535.4 447.4 534.4 442.8 530.2 C 439.2 526.7 434.4 522.7 435.3 517.1 C 435.0 512.5 439.2 509.8 442.3 507.3 C 446.2 504.1 451.5 504.2 456.2 503.3 C 462.8 502.2 469.5 499.5 476.2 500.9 C 479.9 501.4 482.5 504.2 485.2 506.4 C 488.6 503.8 491.0 500.1 494.7 497.8 C 500.1 495.7 505.6 498.3 510.8 499.8 C 514.1 498.4 514.8 494.2 516.6 491.4 C 518.3 487.3 522.4 483.9 527.0 484.6 C 532.5 484.8 536.1 489.6 541.1 491.2 C 546.9 487.7 545.9 479.6 549.5 474.4 C 551.3 472.6 554.0 472.1 556.4 471.7 C 562.8 470.7 568.5 475.2 574.8 475.0 C 579.0 473.0 578.7 467.3 579.4 463.3 C 579.4 457.2 584.2 451.3 590.4 450.8 C 596.4 450.5 601.6 454.1 607.0 456.1 C 608.7 456.8 611.1 457.1 612.2 455.2 C 614.4 451.5 612.9 447.0 613.0 443.0 C 612.5 438.5 614.1 434.0 613.4 429.6 C 611.0 426.0 607.2 423.5 603.1 422.3 C 603.4 426.1 604.4 429.8 604.4 433.6 C 603.3 436.1 600.0 436.0 597.9 434.9 C 592.8 432.4 588.4 428.9 583.7 425.8 C 580.7 434.6 581.8 445.1 575.6 452.6 C 570.9 453.2 569.0 448.1 567.4 444.8 C 564.2 438.3 562.7 430.6 556.9 425.9 C 552.9 435.4 554.2 446.2 550.8 455.9 C 550.0 458.3 546.7 458.0 544.9 457.1 C 540.0 451.3 541.3 442.3 536.0 436.9 C 533.2 442.7 533.9 449.3 532.2 455.4 C 530.9 459.3 525.1 459.2 522.8 456.3 C 520.9 452.8 520.4 448.7 518.0 445.4 C 517.6 445.5 516.6 445.7 516.2 445.8 C 512.7 452.7 512.7 460.8 509.7 467.8 C 508.8 470.9 503.6 470.3 502.6 467.5 C 499.6 461.1 498.0 454.1 497.1 447.1 C 496.0 440.3 496.7 433.4 496.2 426.6 C 490.3 430.2 488.1 436.9 484.1 442.1 C 482.6 444.3 479.6 443.5 477.3 443.8 C 474.2 436.1 472.2 427.5 474.4 419.3 C 476.0 412.7 480.5 407.6 484.4 402.4 C 489.4 396.1 497.4 393.4 502.5 387.3 C 505.1 384.6 501.8 380.7 498.8 380.0 C 489.6 378.4 480.3 380.4 471.1 381.2 C 465.9 381.2 460.8 381.6 455.6 382.3 C 449.5 382.5 443.3 384.0 437.3 382.3 C 429.5 380.3 420.9 379.0 414.6 373.3 C 410.3 369.4 404.9 365.8 403.3 359.8 C 402.0 355.3 400.3 350.8 400.3 346.0 C 400.3 341.8 403.0 338.1 403.4 334.0 C 403.7 332.5 402.2 331.3 400.8 331.4 C 397.7 331.3 394.9 332.8 392.2 334.1 C 387.3 336.6 382.3 339.0 376.7 339.4 C 365.1 340.1 353.5 339.3 341.9 338.3 C 325.9 336.0 309.5 335.0 294.6 328.3 C 287.1 325.9 279.5 322.9 273.7 317.3 C 270.9 314.6 267.7 312.5 264.0 311.3 C 263.6 311.8 262.6 312.6 262.1 313.0 C 262.7 317.9 264.6 322.4 265.2 327.2 C 265.1 337.0 262.3 346.5 259.8 355.9 C 258.0 365.7 251.7 373.7 247.6 382.5 C 243.0 393.6 237.5 404.2 233.2 415.3 C 231.0 421.2 226.2 425.5 222.1 430.1 C 217.4 435.3 215.0 441.9 212.0 448.1 C 208.2 455.9 207.1 464.6 203.3 472.4 C 200.4 478.7 197.2 484.9 193.6 490.8 C 192.6 493.0 189.2 493.2 187.8 491.2 C 185.9 488.3 184.8 485.0 183.1 482.0 C 180.6 486.0 179.4 490.7 176.2 494.2 C 174.5 496.3 170.7 496.1 169.4 493.7 C 167.9 490.9 167.4 487.6 166.9 484.5 C 166.0 479.1 167.6 473.7 167.9 468.4 C 164.8 469.7 162.2 471.6 159.3 473.2 C 157.4 474.4 154.5 473.2 154.3 470.8 C 153.0 465.2 154.9 459.4 154.4 453.7 C 150.9 456.0 148.1 459.5 144.0 460.5 C 140.1 460.0 139.5 455.0 139.5 451.9 C 140.4 445.3 141.1 438.3 144.4 432.4 C 145.2 430.9 145.9 429.3 146.5 427.8 C 143.6 428.3 140.7 429.5 137.7 429.3 C 134.1 427.5 134.0 422.6 135.5 419.4 C 138.1 413.8 142.2 408.8 147.4 405.5 C 153.0 401.9 157.5 396.5 163.8 394.0 C 169.3 391.9 174.9 389.9 180.4 387.5 C 184.7 385.6 189.6 384.9 193.9 382.9 C 196.7 381.4 199.6 378.6 199.2 375.1 C 198.6 367.2 195.4 359.5 196.8 351.5 C 197.9 343.0 202.2 335.4 203.4 327.0 C 204.5 317.7 199.7 309.2 197.9 300.3 C 196.7 296.0 196.4 290.9 192.9 287.6 C 187.8 287.4 183.8 291.2 179.6 293.5 C 174.0 297.1 167.1 297.2 160.7 298.5 C 155.1 299.8 149.4 299.2 143.7 299.4 C 136.7 299.5 129.9 297.0 123.4 294.5 C 118.2 292.6 113.7 289.3 108.7 287.1 C 100.3 283.6 92.9 278.2 84.8 274.1 C 78.7 271.2 74.8 265.5 70.0 261.0 C 65.8 256.7 64.1 250.5 59.6 246.4 C 55.1 242.4 51.1 237.5 45.2 235.6 C 39.2 233.6 33.1 231.9 27.2 229.6 C 24.3 228.7 22.4 224.8 24.2 222.1 C 26.5 219.8 29.7 218.7 32.5 217.2 C 30.2 214.5 27.9 211.8 25.9 208.9 C 27.5 207.6 29.0 205.7 31.2 205.5 C 35.4 205.1 39.5 205.6 43.7 205.7 C 42.9 200.7 37.3 196.9 38.6 191.5 C 40.5 187.7 46.3 190.8 49.1 188.5 C 50.4 185.9 46.8 182.0 49.9 180.1 C 52.4 179.3 55.0 179.1 57.6 178.7 C 58.1 176.2 58.4 173.7 59.3 171.4 C 62.1 170.3 65.0 169.9 67.8 169.3 C 61.4 160.9 52.1 155.6 44.5 148.4 C 36.0 141.4 27.9 133.6 21.5 124.6 C 18.1 120.0 13.5 116.2 11.4 110.8 C 7.8 102.2 3.8 93.6 2.7 84.2 C 2.2 74.2 7.1 64.1 15.6 58.6 C 18.9 56.5 22.5 54.5 26.4 53.5 C 28.2 53.1 30.8 53.4 31.4 55.5 C 32.7 61.0 28.4 66.0 29.4 71.5 C 29.9 73.8 31.4 76.6 34.1 76.9 C 37.0 77.4 40.0 77.4 43.0 77.4 C 44.3 81.7 41.9 86.4 43.5 90.5 C 47.8 92.1 53.2 88.7 57.1 91.8 C 57.8 94.7 57.5 97.7 57.6 100.7 C 61.1 100.3 64.7 99.1 68.2 100.4 C 68.4 103.1 68.7 105.7 69.0 108.3 C 72.0 108.2 75.2 107.0 78.1 107.9 C 80.5 110.6 80.2 114.5 80.6 117.9 C 84.4 118.4 89.1 116.0 92.2 118.7 C 93.4 123.2 91.6 127.9 92.6 132.3 C 94.5 136.2 98.8 138.0 102.7 139.3 C 112.2 142.1 122.1 143.2 131.3 146.9 C 136.0 148.8 142.8 149.2 145.5 144.0 C 143.4 135.9 136.3 130.4 133.4 122.7 C 130.2 116.4 129.9 108.6 124.6 103.4 C 121.0 99.7 117.9 94.9 112.9 92.9 C 109.3 93.0 106.0 94.4 102.4 94.4 C 98.1 92.3 99.8 86.6 99.1 82.8 C 95.4 82.5 91.5 82.9 87.8 82.1 C 85.4 79.3 86.0 75.2 85.8 71.8 C 83.3 72.0 80.8 72.4 78.3 72.3 C 76.7 70.5 76.0 68.2 74.4 66.5 C 72.7 65.4 70.8 64.8 68.9 64.1 C 68.5 61.8 68.0 59.6 67.5 57.4 C 65.0 57.4 62.4 57.6 59.8 57.1 C 58.1 54.7 58.2 51.4 57.5 48.6 C 55.0 48.5 52.4 48.7 49.9 48.0 C 48.8 45.7 48.3 43.2 47.5 40.7 C 44.4 42.3 41.2 43.6 38.0 44.9 C 36.9 43.2 35.0 41.5 35.5 39.3 C 36.9 30.3 42.4 22.8 47.8 15.8 C 52.1 10.0 59.0 7.3 65.4 4.6 Z"
     id="path6" />
  <path
     d=" M 54.8 12.0 C 61.0 8.5 67.5 4.5 74.9 5.4 C 81.3 5.3 87.4 9.3 89.5 15.4 C 92.5 24.5 99.4 31.4 105.9 38.1 C 111.7 42.7 116.5 48.6 123.2 52.0 C 128.9 55.1 134.1 59.2 139.7 62.4 C 143.5 64.6 147.8 65.4 151.6 67.5 C 158.5 71.3 165.7 74.7 173.1 77.1 C 179.0 79.0 183.8 74.4 189.3 73.2 C 193.3 72.0 197.0 74.7 200.3 76.8 C 203.7 79.0 206.2 82.3 208.3 85.7 C 211.4 90.5 216.4 93.5 219.6 98.3 C 223.1 103.7 228.4 108.1 230.3 114.4 C 232.8 122.0 231.5 130.5 235.4 137.6 C 238.9 143.1 245.5 144.9 251.2 147.0 C 261.2 149.8 271.0 153.2 281.2 155.2 C 287.1 156.4 292.1 151.7 297.9 151.6 C 301.5 152.6 303.6 156.2 307.1 157.2 C 312.9 157.0 318.6 154.2 324.4 155.8 C 329.5 157.5 330.9 164.2 336.0 165.5 C 342.1 164.4 345.5 157.3 352.0 156.9 C 354.4 156.9 357.4 156.8 359.0 159.0 C 362.3 164.0 362.1 170.5 365.7 175.4 C 369.7 178.5 375.0 175.9 379.2 174.4 C 384.4 172.4 390.5 171.2 395.9 173.3 C 402.6 177.6 402.8 187.2 409.1 192.0 C 412.7 194.3 416.6 191.6 419.8 189.9 C 426.3 186.4 433.5 181.3 441.2 184.0 C 446.6 189.0 446.7 197.3 450.9 203.1 C 451.9 204.3 453.3 205.4 455.0 205.5 C 463.3 203.8 468.2 194.5 477.1 194.4 C 480.6 194.2 485.1 194.3 487.2 197.8 C 490.1 202.7 491.9 208.5 496.9 211.8 C 500.4 210.2 504.0 208.6 506.8 205.8 C 508.9 204.0 510.9 201.1 514.0 201.3 C 516.1 201.4 518.7 201.1 520.3 202.7 C 524.4 206.7 527.1 212.3 532.1 215.4 C 537.1 216.6 541.0 212.5 544.5 209.6 C 549.0 205.8 553.9 200.2 560.5 201.7 C 565.6 203.3 566.1 209.5 568.3 213.6 C 569.0 215.8 571.6 217.4 573.6 215.8 C 579.0 212.7 583.2 207.7 589.1 205.3 C 592.0 204.1 595.5 204.0 598.2 205.8 C 604.7 210.5 604.4 220.6 611.6 224.6 C 614.1 226.4 617.0 224.6 619.4 223.6 C 623.4 221.8 626.5 218.6 630.5 216.8 C 634.1 215.9 638.6 215.7 641.1 218.9 C 647.8 224.7 648.4 234.4 654.0 241.0 C 656.2 243.5 659.7 242.0 662.5 241.8 C 666.4 241.1 671.2 240.5 674.1 243.9 C 679.7 249.5 676.7 258.5 681.3 264.6 C 685.2 270.1 691.3 273.5 697.5 275.7 C 703.3 277.7 706.7 283.0 711.3 286.7 C 715.6 290.2 717.9 295.4 721.2 299.8 C 725.0 304.8 728.5 310.1 730.8 316.0 C 734.7 326.3 739.0 336.8 739.9 347.9 C 740.7 357.0 742.9 365.9 742.6 375.0 C 742.3 383.3 743.2 391.6 741.7 399.8 C 740.1 408.7 739.4 417.8 736.4 426.4 C 732.6 438.0 730.6 450.5 723.6 460.7 C 719.1 468.1 715.2 475.9 709.4 482.4 C 704.8 487.2 702.0 493.5 696.6 497.6 C 692.1 501.0 688.9 505.8 684.5 509.4 C 677.6 514.9 671.0 521.0 662.8 524.7 C 654.0 528.6 645.8 534.0 636.2 536.0 C 631.9 536.8 627.6 537.8 623.5 539.1 C 614.7 541.9 605.5 542.7 596.4 544.3 C 591.3 544.9 585.9 546.6 581.0 544.1 C 585.0 542.7 589.3 542.2 593.4 541.6 C 612.6 538.5 632.0 535.3 649.6 526.7 C 654.9 523.9 660.8 522.3 665.5 518.6 C 670.6 514.6 676.3 511.5 680.9 506.9 C 685.5 502.5 690.7 498.8 694.9 493.9 C 699.3 488.6 704.3 483.8 708.1 478.0 C 711.2 473.1 715.2 468.8 717.6 463.5 C 722.4 453.4 729.1 443.9 730.9 432.6 C 732.2 425.4 735.8 418.9 736.8 411.6 C 737.7 404.1 739.8 396.6 739.5 389.0 C 739.1 381.3 740.6 373.6 739.3 366.0 C 737.8 357.1 737.8 348.0 734.7 339.5 C 731.9 331.6 730.8 323.0 726.4 315.7 C 721.4 307.2 716.7 298.4 709.8 291.2 C 705.5 286.8 701.5 281.8 695.9 279.0 C 691.1 275.9 685.5 274.5 681.0 271.0 C 675.2 265.0 676.4 255.7 672.4 248.7 C 671.0 246.6 668.9 244.1 666.1 244.8 C 661.5 245.7 655.9 247.7 651.9 244.1 C 645.7 238.3 644.6 229.2 639.6 222.6 C 638.1 220.5 635.4 220.1 633.1 220.5 C 626.2 221.7 622.0 228.6 615.0 229.3 C 608.2 229.2 603.0 223.3 601.1 217.2 C 599.8 213.5 598.0 208.8 593.5 208.3 C 588.5 207.3 585.4 212.2 582.0 215.0 C 578.4 218.0 573.8 221.9 568.8 220.1 C 562.9 217.5 564.0 209.7 559.9 205.6 C 552.1 205.6 547.7 212.9 542.0 217.0 C 538.8 219.5 534.4 220.3 530.5 219.3 C 523.4 216.9 522.5 206.9 515.0 205.5 C 507.6 206.0 504.8 215.9 497.1 215.6 C 492.1 215.0 489.3 210.1 486.8 206.3 C 484.7 203.0 483.6 198.6 479.9 196.6 C 471.9 196.8 467.9 205.2 460.8 207.5 C 457.1 208.1 453.2 208.2 449.5 207.4 C 444.6 204.2 444.3 197.6 442.5 192.6 C 441.5 188.9 437.5 186.1 433.7 187.5 C 427.0 189.9 421.4 195.4 413.9 195.7 C 410.5 195.7 405.7 195.9 403.9 192.3 C 400.9 186.8 398.6 180.4 393.2 176.6 C 389.7 174.1 385.4 176.3 381.9 177.7 C 376.8 179.9 371.1 181.6 365.6 180.2 C 359.4 176.7 359.7 168.5 356.0 163.0 C 355.0 161.6 353.2 159.6 351.3 161.0 C 345.8 163.7 341.8 170.1 334.9 169.1 C 328.8 169.0 327.1 162.1 322.9 158.9 C 319.5 157.0 315.6 158.7 312.5 160.4 C 310.1 161.6 307.4 163.6 304.6 162.4 C 302.2 160.4 300.9 156.8 297.9 155.6 C 293.2 155.8 288.8 158.0 284.0 157.6 C 274.9 157.1 265.8 155.7 257.2 152.7 C 249.1 150.7 240.8 148.1 234.5 142.5 C 230.0 137.9 230.1 131.1 229.0 125.2 C 228.2 119.3 225.6 113.8 222.4 108.7 C 218.0 101.3 211.2 95.8 206.1 88.9 C 202.4 84.6 199.5 79.0 193.8 76.9 C 187.7 75.0 182.8 81.3 176.7 80.2 C 164.9 79.0 154.0 73.8 143.8 68.1 C 139.5 65.5 134.6 64.3 130.4 61.5 C 121.2 55.2 111.4 49.5 103.5 41.5 C 99.2 37.2 94.3 33.3 91.3 27.8 C 88.6 23.1 87.6 17.3 83.8 13.2 C 80.3 9.9 75.3 7.7 70.5 9.2 C 64.4 10.9 58.2 13.2 53.7 17.7 C 50.3 21.7 47.5 26.4 46.3 31.7 C 49.8 31.3 52.9 29.7 56.1 28.3 C 58.8 27.0 61.9 27.4 64.8 27.5 C 64.8 31.6 62.3 34.9 60.2 38.2 C 64.2 37.9 68.1 36.4 72.1 36.5 C 73.4 37.5 74.0 39.3 72.5 40.4 C 71.0 42.4 69.2 44.3 67.4 46.1 C 67.5 46.7 67.8 47.9 67.9 48.5 C 70.7 47.8 73.6 47.0 76.5 46.3 C 76.9 49.2 76.9 52.2 76.7 55.1 C 79.5 55.3 82.2 55.5 85.0 55.8 C 85.3 58.3 85.5 60.8 85.8 63.3 C 89.2 63.5 92.9 63.2 95.6 65.7 C 93.8 69.2 92.4 72.9 92.0 76.9 C 97.3 77.2 102.9 74.1 107.9 77.1 C 107.3 80.2 106.7 83.3 106.2 86.4 C 111.0 87.4 116.3 87.5 120.4 90.6 C 124.7 92.8 127.7 96.7 130.1 100.9 C 135.4 108.3 137.2 117.5 141.4 125.5 C 143.8 131.0 150.1 134.2 151.4 140.3 C 151.9 144.0 152.3 149.1 148.4 151.3 C 143.8 153.9 138.2 153.8 133.0 153.5 C 125.4 152.6 118.6 148.5 111.3 146.4 C 105.7 144.7 99.9 144.0 94.2 142.5 C 90.9 141.7 88.6 138.7 88.0 135.5 C 87.3 132.2 87.0 128.9 86.3 125.7 C 83.2 125.5 80.0 125.8 76.9 125.0 C 75.6 122.4 75.6 119.2 73.8 116.8 C 70.6 116.9 67.6 118.3 64.4 118.5 C 60.9 116.7 62.2 111.7 61.5 108.4 C 58.6 107.8 55.4 107.8 52.8 106.2 C 51.2 103.3 51.2 99.8 50.2 96.6 C 46.6 96.4 42.7 97.2 39.3 95.6 C 36.1 92.8 38.0 87.9 36.9 84.2 C 33.6 81.2 27.4 82.3 25.3 77.8 C 23.7 73.2 24.5 68.2 24.4 63.5 C 19.8 62.4 15.3 65.1 12.8 68.9 C 9.7 73.8 7.9 79.9 9.1 85.7 C 10.2 91.0 10.8 96.7 13.2 101.7 C 17.1 109.2 22.3 115.9 27.4 122.5 C 30.6 126.7 34.8 129.9 38.0 133.9 C 41.7 138.3 46.3 141.8 50.6 145.4 C 59.5 153.2 68.9 160.4 77.8 168.2 C 83.5 171.7 88.5 176.2 93.8 180.2 C 103.3 185.3 111.5 192.5 121.4 196.8 C 130.0 201.2 139.3 204.3 147.4 209.7 C 150.4 211.7 152.5 214.7 153.8 218.0 C 155.9 222.7 158.4 227.2 161.8 231.2 C 164.4 234.2 167.8 236.5 170.5 239.5 C 173.7 242.8 175.8 246.9 178.8 250.2 C 183.4 255.3 187.6 261.3 194.3 263.6 C 197.0 259.0 197.0 253.5 198.8 248.7 C 201.2 242.1 203.7 235.4 207.8 229.8 C 209.8 226.7 213.9 227.4 217.0 227.4 C 223.2 227.5 226.6 233.5 231.7 236.2 C 231.8 235.8 232.1 235.0 232.2 234.5 L 232.5 233.7 L 232.7 233.0 C 233.2 241.2 241.0 245.7 244.2 252.7 C 248.3 261.5 250.3 271.0 255.0 279.4 C 254.3 284.5 256.8 289.1 257.8 293.9 C 258.7 296.7 258.9 299.8 260.7 302.3 C 264.3 304.9 268.8 305.9 272.3 308.7 C 279.8 314.6 288.1 319.4 296.7 323.4 C 304.2 327.0 312.6 327.6 320.6 329.6 C 328.4 331.5 336.5 331.7 344.4 332.9 C 354.2 334.3 364.1 335.0 374.0 334.3 C 380.3 333.7 385.6 329.9 391.4 327.7 C 396.4 325.9 401.8 326.8 406.9 326.0 C 409.1 325.9 410.2 323.8 411.4 322.3 C 414.8 317.2 418.2 312.2 421.3 307.0 C 420.8 307.0 419.8 307.0 419.3 307.0 C 406.0 307.0 392.7 306.9 379.3 307.0 C 378.1 306.9 376.9 306.8 375.7 306.7 C 390.4 305.3 405.1 306.4 419.8 306.0 C 429.1 303.7 433.8 294.3 441.6 289.6 C 454.1 282.1 468.3 277.5 482.7 275.3 C 482.7 276.4 482.6 277.5 482.6 278.6 C 476.3 280.1 469.9 281.4 463.7 283.6 C 456.4 286.3 448.8 288.7 442.9 293.9 C 438.6 297.7 432.8 300.2 430.3 305.7 C 430.1 305.9 429.9 306.2 429.8 306.4 C 425.5 309.8 421.1 313.3 418.3 318.2 C 415.2 323.7 411.2 328.8 409.6 334.9 C 408.5 339.1 405.1 342.5 404.9 346.9 C 406.2 357.4 413.7 366.4 422.9 371.3 C 427.1 373.4 431.5 375.4 436.0 377.1 C 441.4 379.0 447.2 378.7 452.8 378.0 C 458.6 377.2 464.5 377.6 470.3 376.7 C 480.2 375.8 490.2 373.0 500.1 375.0 C 503.5 376.0 507.7 377.2 508.8 381.0 C 510.0 385.1 509.9 390.4 506.2 393.1 C 501.7 396.6 497.0 399.9 492.8 403.7 C 486.6 408.6 481.1 415.1 479.5 423.0 C 478.8 426.1 479.8 429.2 480.9 432.1 C 483.0 430.9 484.9 429.3 486.2 427.2 C 489.5 422.2 493.7 417.9 498.4 414.3 C 499.9 413.1 501.9 413.4 503.7 413.1 C 504.1 418.5 502.9 423.8 501.0 428.9 C 500.0 426.0 499.7 422.8 497.7 420.3 C 496.3 420.3 495.5 421.6 494.6 422.5 C 490.0 428.7 485.5 435.0 481.7 441.7 C 481.1 441.7 479.8 441.7 479.2 441.7 C 477.3 438.1 476.4 434.1 476.4 430.1 C 476.5 425.5 475.7 420.7 477.7 416.5 C 481.3 409.3 486.2 402.6 492.9 397.9 C 496.9 394.2 502.5 392.0 505.4 387.2 C 507.5 384.2 504.6 380.5 501.7 379.2 C 493.5 375.6 484.6 378.7 476.0 378.7 C 468.0 378.6 460.0 379.5 452.0 379.9 C 441.1 381.4 429.3 380.0 419.7 374.2 C 415.3 371.0 411.2 367.4 407.5 363.5 C 403.7 358.9 402.9 352.7 402.4 347.0 C 401.9 342.4 404.5 338.3 405.5 334.0 C 406.1 331.6 404.0 329.4 401.7 329.2 C 397.2 328.6 393.1 331.1 389.3 333.1 C 384.6 335.7 379.5 337.6 374.1 337.6 C 368.1 337.6 362.2 337.7 356.3 337.3 C 336.1 334.9 315.3 334.3 296.0 326.9 C 286.2 324.2 278.0 318.0 270.1 311.8 C 267.8 310.3 265.2 308.2 262.2 308.8 C 260.2 309.1 259.5 311.3 259.6 313.0 C 259.9 318.4 262.9 323.3 262.5 328.8 C 261.8 338.3 260.2 347.8 257.8 357.0 C 256.0 363.6 251.1 368.5 248.7 374.8 C 244.1 387.2 237.1 398.5 232.9 411.1 C 230.9 418.2 224.8 422.9 220.7 428.8 C 213.7 436.5 209.5 446.4 207.0 456.4 C 203.7 467.3 198.3 477.3 193.3 487.4 C 192.6 489.1 190.8 489.5 189.3 490.1 C 186.0 483.9 188.4 476.7 186.1 470.3 C 180.6 476.3 180.8 485.4 175.5 491.5 C 174.1 493.5 170.3 493.0 169.7 490.5 C 168.4 485.4 168.7 480.1 169.1 475.0 C 169.7 468.4 172.4 462.1 173.8 455.6 C 167.8 457.6 166.8 464.7 162.5 468.5 C 160.9 470.9 158.0 470.8 155.5 470.8 C 155.3 466.0 154.8 461.0 156.7 456.5 C 158.6 451.3 162.5 446.7 162.5 440.9 C 156.4 443.9 153.0 449.9 149.0 455.0 C 147.5 457.4 144.7 457.8 142.1 458.0 C 141.1 450.4 141.7 442.2 145.5 435.3 C 148.1 430.3 153.4 426.9 154.1 421.0 C 148.3 420.9 143.8 425.0 138.7 427.1 C 136.9 423.9 137.4 420.3 139.4 417.4 C 141.4 413.4 144.5 409.9 148.3 407.5 C 153.5 404.1 158.0 399.5 163.6 396.7 C 169.9 393.0 177.1 391.7 183.8 389.0 C 190.2 387.0 197.9 385.4 201.2 378.9 C 202.5 373.2 199.8 367.7 199.5 362.0 C 199.2 355.6 199.1 349.0 201.2 342.9 C 203.1 337.0 206.3 331.4 206.5 325.0 C 206.8 317.9 202.9 311.6 201.6 304.7 C 200.3 299.4 200.0 293.7 197.0 289.1 C 195.5 286.8 192.6 285.9 190.0 286.4 C 183.6 287.0 179.0 292.2 172.9 293.7 C 166.6 295.2 160.1 296.2 153.6 296.6 C 153.5 296.0 153.4 294.8 153.3 294.2 C 162.7 292.2 172.5 291.0 181.0 286.0 C 185.2 283.3 190.1 282.2 195.1 282.1 C 196.6 278.8 196.8 275.2 195.1 272.0 C 194.6 272.0 193.7 272.0 193.2 272.0 C 185.5 271.7 177.9 273.7 170.3 272.8 C 177.2 271.7 184.2 271.4 191.2 270.9 C 191.9 270.8 193.5 270.7 194.2 270.7 C 191.5 266.8 187.9 263.6 184.0 260.9 C 181.1 259.0 179.2 255.7 176.0 254.5 C 171.0 255.4 166.4 260.4 161.2 257.3 C 164.9 254.8 170.9 253.3 171.4 248.0 C 169.7 240.6 161.9 237.9 157.3 232.8 C 153.1 224.0 148.8 214.0 139.7 209.3 C 131.7 205.9 123.4 202.7 116.0 198.0 C 111.8 195.4 106.9 194.1 103.0 191.0 C 95.7 185.1 87.1 181.1 80.1 174.9 C 74.8 170.1 68.5 166.6 63.5 161.5 C 59.6 157.3 54.3 154.7 50.3 150.6 C 45.6 145.9 40.0 142.4 35.6 137.4 C 32.2 133.8 28.4 130.6 25.6 126.5 C 20.7 118.9 13.3 112.7 10.5 103.7 C 8.4 95.5 4.3 87.3 5.7 78.6 C 6.9 71.9 9.8 64.7 16.1 61.2 C 19.9 59.0 24.0 56.1 28.6 56.5 C 29.9 59.4 27.9 62.4 27.3 65.3 C 25.8 69.5 26.5 75.1 30.5 77.6 C 33.6 78.9 37.0 78.2 40.2 79.0 C 42.6 81.3 40.2 85.1 40.5 88.0 C 39.8 90.4 41.4 92.7 44.0 92.5 C 47.6 93.1 52.0 90.8 55.1 93.2 C 55.1 96.3 54.3 99.3 54.6 102.4 C 54.7 104.1 56.5 104.5 57.9 104.0 C 60.5 103.5 62.9 102.5 65.6 102.4 C 67.3 106.4 64.0 110.8 65.1 115.1 C 69.4 114.2 72.3 110.2 76.7 109.3 C 78.1 112.3 77.3 115.8 77.9 119.0 C 78.5 120.4 79.5 120.9 81.0 120.5 C 84.0 120.2 86.9 119.1 89.8 118.3 C 92.7 123.1 89.0 128.7 90.8 133.8 C 92.4 137.5 96.4 139.0 99.8 140.5 C 106.4 143.5 114.0 143.0 120.8 145.5 C 126.4 147.4 131.9 150.4 138.0 150.4 C 142.2 150.3 145.8 147.8 148.8 145.1 C 145.9 136.4 139.0 130.0 135.4 121.7 C 133.4 117.5 131.8 113.2 130.3 108.9 C 128.6 104.0 125.2 100.0 121.6 96.3 C 119.4 94.1 116.9 91.8 113.8 91.1 C 109.7 90.9 105.7 92.2 101.6 92.5 C 101.6 88.1 101.9 83.6 101.9 79.2 C 98.0 79.4 94.1 80.3 90.1 80.2 C 89.0 79.4 88.5 78.4 88.7 77.0 C 88.8 73.6 89.4 70.3 89.7 67.0 C 86.1 67.3 82.7 69.2 79.1 69.3 C 77.5 67.7 77.6 65.2 77.1 63.1 C 74.9 63.0 72.2 64.0 70.7 61.9 C 70.5 58.6 71.2 55.4 71.6 52.2 C 68.2 52.9 64.9 53.8 61.6 54.7 C 60.4 50.8 62.5 47.2 63.6 43.6 C 59.1 43.4 55.3 46.0 51.1 47.0 C 50.4 43.2 51.6 39.4 52.4 35.8 C 47.3 37.5 43.0 41.7 37.4 41.7 C 36.7 34.5 41.6 28.8 45.2 23.2 C 48.2 19.3 50.4 14.5 54.8 12.0 Z"
     id="path8"
     stroke-width="0.09375"
     stroke="#54a68e"
     fill="#54a68e" />
  <path
     d=" M 50.2 26.5 C 54.5 17.4 64.1 11.3 74.0 11.1 C 77.9 10.9 81.6 13.1 83.6 16.5 C 87.8 23.2 89.5 31.7 95.9 37.0 C 100.7 40.9 104.3 46.0 109.4 49.5 C 117.9 55.5 126.1 62.1 135.6 66.3 C 142.8 69.6 149.4 74.3 156.9 76.9 C 164.1 79.3 171.2 82.7 179.0 82.5 C 183.9 82.5 187.6 77.6 192.6 78.3 C 196.5 79.7 198.8 83.6 201.5 86.6 C 206.1 91.9 210.2 97.8 215.4 102.6 C 220.1 107.0 222.6 113.2 225.1 119.0 C 228.4 126.9 226.3 136.8 232.7 143.3 C 239.8 150.9 250.4 153.4 260.2 155.8 C 268.5 157.0 276.6 159.9 285.0 159.7 C 289.4 159.7 293.5 158.1 297.6 157.0 C 300.1 160.3 302.2 165.4 307.0 165.5 C 311.5 164.3 315.0 160.1 319.9 160.2 C 323.4 160.3 324.8 164.1 326.7 166.4 C 329.0 170.2 333.8 170.9 337.9 170.6 C 343.6 170.3 347.8 165.8 352.3 162.7 C 357.7 167.2 356.8 175.4 361.8 180.1 C 364.7 183.0 369.0 182.8 372.7 182.5 C 378.8 182.0 384.0 178.3 390.0 177.6 C 396.1 179.8 398.1 186.8 401.3 191.9 C 404.4 197.7 412.2 198.6 418.0 196.8 C 423.8 195.5 428.6 191.8 434.1 189.7 C 438.3 188.2 441.1 192.7 441.8 196.2 C 443.2 200.6 443.2 206.7 448.1 208.8 C 452.8 210.3 458.1 210.0 462.8 208.7 C 469.2 206.8 472.7 199.2 479.8 199.2 C 484.1 203.2 485.1 209.6 489.3 213.7 C 492.3 217.4 497.6 218.7 502.0 216.9 C 506.1 215.2 508.2 211.0 511.7 208.5 C 514.0 206.8 517.4 207.7 519.1 209.9 C 522.0 213.6 523.6 218.6 528.2 220.7 C 533.9 223.0 540.8 221.6 545.1 217.1 C 549.3 213.1 553.3 208.5 559.2 207.2 C 561.4 211.6 561.5 217.2 565.3 220.6 C 569.5 224.1 575.5 222.4 579.6 219.6 C 584.3 216.5 587.7 211.7 592.9 209.3 C 597.2 212.4 599.3 217.2 601.3 221.9 C 603.7 227.6 609.4 232.1 615.8 231.5 C 622.2 230.7 626.2 225.0 631.8 222.7 C 633.9 222.0 636.8 221.8 638.2 223.7 C 642.4 230.7 643.9 239.3 649.8 245.2 C 654.7 250.0 661.7 247.1 667.7 247.4 C 670.2 247.5 671.2 250.3 671.8 252.3 C 673.9 259.4 674.5 267.5 680.0 272.9 C 688.2 278.0 697.9 281.1 704.5 288.5 C 709.4 294.1 714.8 299.3 718.3 305.9 C 723.0 314.7 729.1 323.1 730.8 333.2 C 731.8 340.2 734.2 346.8 734.7 353.8 C 735.3 361.0 737.1 368.2 736.7 375.5 C 736.2 383.5 737.1 391.5 735.8 399.4 C 734.1 410.4 731.9 421.3 729.3 432.2 C 726.9 441.9 721.7 450.5 717.6 459.5 C 714.8 466.0 710.0 471.3 706.2 477.1 C 704.2 480.1 701.9 482.8 699.4 485.4 C 694.9 490.0 691.5 495.5 686.3 499.3 C 681.4 502.7 678.0 508.0 672.8 511.0 C 669.4 513.1 666.2 515.6 662.8 517.9 C 657.0 521.9 650.2 524.1 643.8 526.9 C 635.5 530.6 626.7 532.6 618.2 535.3 C 610.4 537.7 602.1 537.1 594.1 538.4 C 586.1 539.6 578.1 540.7 569.9 540.5 C 563.3 540.8 556.7 541.9 550.0 541.5 C 540.3 541.2 530.5 542.4 521.0 540.4 C 513.2 538.9 505.3 538.0 497.5 536.7 C 489.3 535.0 481.2 533.1 473.0 531.2 C 470.5 530.6 468.2 529.5 466.0 528.3 C 465.9 526.9 465.7 525.5 465.6 524.2 C 468.6 522.0 472.3 521.5 476.0 521.7 C 487.6 522.2 499.1 521.0 510.8 521.2 C 525.1 520.2 539.5 521.4 553.9 520.4 C 556.7 520.0 559.4 521.2 562.0 522.2 C 560.8 525.7 559.6 529.2 558.3 532.7 C 560.8 529.9 563.3 527.0 566.2 524.5 C 568.5 527.9 570.5 531.4 573.0 534.7 C 572.5 530.9 571.6 527.2 570.9 523.4 C 574.3 523.3 577.7 523.3 581.1 523.0 C 577.9 521.6 574.6 520.4 571.5 518.9 C 575.7 515.7 580.7 513.7 585.1 510.9 C 580.7 512.6 576.7 515.0 572.6 517.3 C 573.3 514.7 574.1 512.1 574.9 509.4 C 572.5 511.7 570.2 513.9 567.7 516.1 C 565.7 512.8 563.3 509.8 560.9 506.9 C 561.6 510.6 562.5 514.2 563.2 517.9 C 559.2 517.8 555.2 517.9 551.7 519.8 C 541.5 520.9 531.2 519.8 521.0 520.3 C 502.6 521.0 484.3 521.1 465.9 521.5 C 466.9 519.5 467.8 517.5 468.7 515.5 C 466.9 517.0 465.2 518.5 463.5 520.0 C 462.3 518.2 461.1 516.4 459.8 514.7 C 460.1 516.8 460.5 519.0 461.0 521.2 C 459.0 521.2 457.1 521.3 455.2 521.5 C 456.8 522.3 458.5 523.0 460.1 523.6 C 459.5 524.9 458.8 526.1 458.2 527.4 C 453.1 525.7 446.9 524.6 444.0 519.7 C 443.0 518.1 443.6 516.2 445.1 515.1 C 449.3 511.2 455.4 510.9 460.8 510.4 C 464.9 510.0 468.9 508.8 472.9 508.7 C 478.0 509.5 481.3 515.5 486.8 514.6 C 492.3 514.0 495.4 508.8 499.1 505.2 C 504.5 507.0 510.1 511.6 515.9 508.8 C 521.4 505.9 520.6 498.5 524.6 494.4 C 526.4 492.4 528.8 494.5 530.7 495.3 C 535.3 497.8 541.2 500.5 546.4 498.4 C 552.5 494.6 551.5 486.0 556.2 481.2 C 558.0 479.6 560.4 480.9 562.4 481.3 C 568.3 483.0 575.3 485.3 581.1 482.0 C 585.6 479.3 585.9 473.5 586.4 468.8 C 586.8 465.1 587.0 460.3 591.1 458.6 C 597.5 459.8 603.0 464.2 609.8 464.3 C 613.6 464.4 618.2 462.6 619.3 458.5 C 621.5 451.9 619.5 444.9 620.9 438.2 C 621.4 435.3 624.6 434.4 627.1 434.4 C 634.3 433.9 642.2 437.2 648.8 432.7 C 653.3 430.7 653.0 425.1 652.9 420.9 C 652.8 415.5 650.8 410.4 650.5 405.0 C 650.4 401.9 653.0 399.3 656.0 398.8 C 662.2 397.4 669.5 397.2 674.3 392.3 C 677.1 388.4 676.6 382.8 674.0 378.8 C 671.0 374.0 667.4 369.1 666.5 363.3 C 666.1 359.3 665.3 354.5 668.3 351.3 C 670.7 348.7 674.6 349.8 677.8 349.3 C 682.5 349.2 685.0 343.7 684.2 339.6 C 681.7 327.1 669.8 318.4 657.7 316.5 C 648.4 314.3 638.7 314.2 629.3 311.9 C 623.0 310.3 616.5 309.1 610.0 308.2 C 603.3 307.1 596.6 307.8 589.9 307.6 C 579.6 307.7 569.2 307.3 558.9 307.7 C 548.5 309.1 538.0 308.3 527.5 308.7 C 522.2 308.6 518.2 313.0 513.0 313.3 C 509.2 313.6 505.8 315.1 502.5 317.0 C 502.3 317.1 501.8 317.3 501.5 317.4 C 493.3 320.2 486.0 325.4 477.5 327.4 C 470.8 328.1 464.3 325.4 457.6 325.5 C 457.6 325.6 457.4 325.6 457.4 325.6 C 456.8 326.0 455.6 326.7 455.0 327.1 C 452.9 328.9 451.3 331.1 449.6 333.3 C 451.2 332.4 452.7 331.6 454.3 330.7 C 463.9 334.2 474.0 335.5 483.9 338.0 C 499.6 341.0 516.5 341.1 530.8 349.1 C 538.3 353.1 543.3 360.1 548.7 366.3 C 553.8 372.7 558.2 379.8 560.8 387.5 C 564.9 398.5 572.6 408.2 574.2 420.1 C 574.7 424.0 575.1 428.1 573.9 431.9 C 573.4 432.1 572.5 432.4 572.1 432.6 C 567.3 426.5 565.8 418.2 559.7 413.3 C 556.6 411.0 553.7 414.7 551.7 416.7 C 547.9 420.3 548.9 426.1 545.9 430.1 C 543.4 425.5 545.4 420.1 543.5 415.4 C 542.5 412.5 538.0 411.3 536.1 414.0 C 532.1 419.1 531.0 425.6 528.5 431.4 C 527.8 433.2 526.2 434.3 524.8 435.5 C 524.6 428.8 526.4 422.1 525.3 415.5 C 524.5 412.6 520.6 413.0 519.1 415.1 C 515.7 419.1 514.5 424.5 512.4 429.3 C 509.9 434.7 509.3 440.6 507.1 446.1 C 503.3 442.3 504.6 436.7 504.5 432.0 C 504.6 425.7 506.9 419.6 506.5 413.3 C 506.1 409.4 500.7 409.8 498.2 411.3 C 492.4 415.8 487.7 421.6 482.6 426.9 C 481.1 423.9 481.5 420.3 483.5 417.5 C 487.6 411.5 492.7 405.9 498.7 401.6 C 502.4 398.7 506.5 396.2 509.4 392.5 C 514.3 386.1 510.9 375.3 503.1 373.2 C 498.0 371.7 492.5 371.1 487.2 371.9 C 479.2 373.2 471.1 373.9 463.0 374.5 C 455.0 374.6 447.1 376.7 439.2 375.0 C 433.6 373.8 428.4 371.4 423.3 368.9 C 415.8 365.4 411.0 358.0 408.3 350.5 C 406.2 345.6 410.1 341.2 411.4 336.7 C 414.2 328.5 418.2 320.5 424.0 314.0 C 426.2 311.6 428.3 309.2 429.8 306.4 C 438.2 306.3 446.6 305.6 455.0 305.8 C 461.8 305.9 468.7 305.1 475.5 306.1 C 472.1 310.3 468.0 313.8 464.7 317.9 C 467.1 316.0 468.9 313.4 471.3 311.5 C 473.5 310.5 475.9 310.0 477.9 308.6 C 479.0 310.2 480.1 311.8 481.2 313.4 C 481.0 311.1 480.7 308.9 480.5 306.6 C 485.6 307.4 489.3 311.3 494.0 313.3 C 489.4 310.3 484.9 307.3 480.6 304.0 C 481.7 302.6 482.5 300.8 484.3 300.1 C 491.1 296.9 496.8 291.9 502.9 287.6 C 497.6 290.3 493.4 294.5 488.3 297.5 C 485.2 299.5 481.7 300.6 478.5 302.4 C 477.3 301.1 476.1 299.9 474.9 298.7 C 475.2 300.4 475.6 302.1 476.1 303.8 C 471.3 304.0 466.8 305.5 462.0 305.3 C 452.4 305.0 442.9 305.5 433.3 305.8 C 436.7 300.3 442.3 297.0 447.3 293.3 C 457.5 285.8 470.6 284.9 482.2 281.0 C 485.0 280.4 485.5 277.3 486.4 275.1 C 483.1 274.5 479.7 274.0 476.4 274.6 C 465.0 276.3 453.9 280.1 443.9 286.0 C 434.5 290.8 428.1 299.5 419.8 306.0 C 405.1 306.4 390.4 305.3 375.7 306.7 C 360.2 306.9 344.7 307.6 329.2 307.2 C 330.8 303.9 332.7 300.8 334.5 297.6 C 331.6 299.6 328.6 301.6 325.9 303.8 C 324.0 300.9 321.9 298.2 319.8 295.5 C 320.3 298.8 321.1 302.2 321.8 305.5 C 318.1 306.2 314.4 306.3 310.7 306.7 C 314.1 308.4 317.7 309.7 321.3 311.0 C 319.2 314.2 317.2 317.5 315.7 321.1 C 318.8 318.6 321.6 315.8 324.7 313.3 C 326.5 316.7 328.5 320.0 330.8 323.1 C 330.2 319.4 329.5 315.7 328.6 312.1 C 332.4 311.9 336.1 311.8 339.8 311.5 C 337.4 310.2 334.8 309.2 332.3 308.1 C 348.0 307.7 363.7 307.5 379.3 307.0 C 392.7 306.9 406.0 307.0 419.3 307.0 C 415.4 312.0 412.6 317.7 408.3 322.3 C 406.5 324.3 403.5 324.1 401.0 324.5 C 395.9 324.8 390.9 325.7 386.1 327.4 C 381.5 329.0 377.0 331.5 372.1 331.7 C 355.9 332.2 339.9 329.4 323.8 327.5 C 316.7 326.6 309.2 326.4 302.4 323.6 C 292.4 319.5 282.6 314.6 274.3 307.7 C 270.7 304.7 266.2 303.1 262.3 300.8 C 260.8 300.0 260.6 298.3 260.2 296.9 C 258.9 291.3 258.3 285.5 255.9 280.3 C 261.2 282.9 266.7 285.2 272.4 286.9 C 266.7 284.2 260.7 282.2 255.0 279.4 C 250.3 271.0 248.3 261.5 244.2 252.7 C 241.0 245.7 233.2 241.2 232.7 233.0 C 236.1 215.3 242.2 198.3 245.8 180.7 C 242.9 190.2 240.7 200.0 237.9 209.6 C 235.7 217.5 233.7 225.6 232.5 233.7 L 232.2 234.5 C 227.7 230.8 223.5 225.1 217.0 225.2 C 213.6 225.2 209.3 224.8 206.8 227.8 C 202.4 232.9 200.1 239.4 197.6 245.6 C 195.6 250.5 195.4 256.0 193.2 261.0 C 188.7 257.8 184.9 253.8 181.2 249.8 C 177.8 246.4 176.2 241.6 172.7 238.3 C 169.6 235.4 165.9 233.1 163.3 229.6 C 160.3 225.6 157.5 221.2 155.4 216.6 C 154.2 214.2 153.2 211.7 151.1 210.0 C 141.8 202.8 130.6 198.8 120.0 194.0 C 114.3 190.9 109.0 187.0 103.4 183.7 C 98.9 181.0 94.2 178.4 90.2 174.8 C 86.1 170.8 80.7 168.4 76.6 164.4 C 71.6 159.3 65.3 155.8 60.2 150.8 C 53.0 144.7 45.5 138.9 38.9 132.0 C 32.2 124.7 25.2 117.5 20.1 108.9 C 17.2 103.9 12.8 98.9 13.4 92.8 L 14.0 92.7 C 16.5 93.7 19.1 94.6 21.6 95.5 C 20.2 98.1 18.9 100.7 17.7 103.4 C 19.9 101.6 21.9 99.7 24.0 97.9 C 25.1 100.3 26.4 102.6 28.0 104.7 C 27.6 101.7 27.0 98.7 26.6 95.7 C 31.0 96.7 33.7 100.6 37.3 103.1 C 35.3 100.8 33.0 98.9 30.8 96.9 C 32.0 96.4 33.2 95.9 34.4 95.4 C 32.0 94.6 29.5 93.8 27.1 92.9 C 28.5 90.9 29.7 88.7 30.7 86.4 C 28.6 87.9 26.8 89.6 24.9 91.3 C 23.6 89.2 22.3 87.1 20.7 85.1 C 21.0 87.5 21.5 89.9 22.0 92.3 C 19.3 92.2 16.6 92.3 14.0 92.3 C 10.9 92.3 11.4 88.2 10.7 86.0 C 9.1 77.8 13.3 69.4 20.3 65.1 C 23.7 70.0 21.5 76.8 25.5 81.5 C 28.0 83.7 31.5 84.1 34.3 85.7 C 36.0 89.7 34.8 95.3 38.9 98.0 C 42.0 98.9 45.3 98.4 48.4 99.4 C 49.8 101.5 50.0 104.2 50.8 106.5 C 51.7 109.7 55.9 109.5 58.4 110.7 C 59.4 113.9 59.4 118.3 62.8 120.1 C 65.7 121.0 68.8 120.3 71.8 120.2 C 73.2 122.3 74.5 124.7 76.4 126.5 C 78.8 127.7 81.6 127.8 84.0 129.0 C 85.8 133.2 85.0 138.8 89.3 141.7 C 94.8 145.3 101.7 146.1 107.9 147.8 C 117.5 149.8 126.0 155.9 136.0 155.7 C 141.1 155.7 147.1 155.8 151.2 152.2 C 154.5 149.2 153.9 144.2 153.5 140.2 C 152.3 132.9 144.8 129.3 142.2 122.7 C 139.5 116.2 138.0 108.9 134.0 103.0 C 130.6 98.1 127.7 92.6 122.6 89.4 C 118.6 86.5 113.8 85.2 109.1 83.9 C 109.6 81.6 110.1 79.4 110.6 77.1 C 108.8 75.7 107.2 73.5 104.8 73.6 C 102.0 73.4 99.2 73.9 96.5 73.4 C 95.6 70.4 97.6 67.5 97.6 64.4 C 95.6 62.0 92.4 61.4 89.7 60.2 C 88.8 58.1 88.0 56.0 87.1 53.8 C 84.9 53.1 82.7 52.4 80.4 51.6 C 79.5 45.8 74.8 41.2 75.2 35.1 C 73.3 34.1 71.4 33.1 69.5 32.0 C 71.3 30.5 73.0 29.0 74.7 27.6 C 75.9 29.9 76.9 32.3 78.2 34.6 C 77.9 31.6 77.3 28.6 76.9 25.6 C 81.3 28.9 84.8 33.1 89.2 36.2 C 86.0 32.8 82.2 29.8 79.0 26.4 C 81.1 26.2 83.1 26.1 85.2 25.9 C 82.5 25.4 79.9 24.8 77.3 24.0 C 78.6 21.3 79.9 18.6 81.1 15.8 C 79.1 17.6 77.2 19.6 75.5 21.7 C 74.0 19.3 72.5 17.0 70.8 14.7 C 71.2 17.6 71.8 20.4 72.3 23.2 C 69.4 23.2 66.4 23.2 63.4 23.5 C 66.1 24.5 68.9 25.3 71.6 25.9 C 70.7 27.7 69.7 29.6 68.8 31.5 C 67.4 29.3 66.6 25.9 63.6 25.5 C 59.1 24.8 54.7 27.2 50.2 26.5 Z"
     id="path10"
     stroke-width="0.09375"
     stroke="#fcfefc"
     fill="#fcfefc"
     style="fill:#ffffff;fill-opacity:1" />
  <path
     fill="#050305"
     stroke="#050305"
     stroke-width="0.09375"
     d=" M 70.8 14.7 C 72.5 17.0 74.0 19.3 75.5 21.7 C 77.2 19.6 79.1 17.6 81.1 15.8 C 79.9 18.6 78.6 21.3 77.3 24.0 C 79.9 24.8 82.5 25.4 85.2 25.9 C 83.1 26.1 81.1 26.2 79.0 26.4 C 82.2 29.8 86.0 32.8 89.2 36.2 C 84.8 33.1 81.3 28.9 76.9 25.6 C 77.3 28.6 77.9 31.6 78.2 34.6 C 76.9 32.3 75.9 29.9 74.7 27.6 C 73.0 29.0 71.3 30.5 69.5 32.0 C 69.2 32.3 68.4 32.9 68.0 33.2 C 68.2 32.8 68.6 31.9 68.8 31.5 C 69.7 29.6 70.7 27.7 71.6 25.9 C 68.9 25.3 66.1 24.5 63.4 23.5 C 66.4 23.2 69.4 23.2 72.3 23.2 C 71.8 20.4 71.2 17.6 70.8 14.7 Z"
     id="path12" />
  <path
     fill="#050305"
     stroke="#050305"
     stroke-width="0.09375"
     d=" M 92.8 39.8 C 95.4 41.6 97.8 43.8 100.0 46.2 C 97.4 44.3 94.9 42.2 92.8 39.8 Z"
     id="path36" />
  <path
     fill="#54a68e"
     stroke="#54a68e"
     stroke-width="0.09375"
     d=" M 101.2 47.3 C 101.8 47.9 101.8 47.9 101.2 47.3 Z"
     id="path38" />
  <path
     fill="#54a68e"
     stroke="#54a68e"
     stroke-width="0.09375"
     d=" M 103.2 50.2 C 103.8 50.8 103.8 50.8 103.2 50.2 Z"
     id="path40" />
  <path
     fill="#050305"
     stroke="#050305"
     stroke-width="0.09375"
     d=" M 106.8 52.8 C 109.8 54.9 112.5 57.5 115.0 60.2 C 112.1 58.0 109.3 55.5 106.8 52.8 Z"
     id="path42" />
  <path
     fill="#54a68e"
     stroke="#54a68e"
     stroke-width="0.09375"
     d=" M 117.2 63.2 C 117.8 63.8 117.8 63.8 117.2 63.2 Z"
     id="path44" />
  <path
     fill="#050305"
     stroke="#050305"
     stroke-width="0.09375"
     d=" M 119.8 64.8 C 122.8 66.9 125.5 69.5 127.9 72.2 C 125.1 69.9 122.3 67.5 119.8 64.8 Z"
     id="path46" />
  <path
     fill="#050305"
     stroke="#050305"
     stroke-width="0.09375"
     d=" M 129.2 74.3 C 130.5 73.7 132.3 75.5 131.8 76.8 C 130.5 77.3 128.8 75.6 129.2 74.3 Z"
     id="path72" />
  <path
     fill="#050305"
     stroke="#050305"
     stroke-width="0.09375"
     d=" M 133.8 77.8 C 137.4 80.4 140.6 83.5 143.1 87.2 C 140.2 83.8 136.9 81.0 133.8 77.8 Z"
     id="path76" />
  <path
     fill="#050305"
     stroke="#050305"
     stroke-width="0.09375"
     d=" M 20.7 85.1 C 22.3 87.1 23.6 89.2 24.9 91.3 C 26.8 89.6 28.6 87.9 30.7 86.4 C 29.7 88.7 28.5 90.9 27.1 92.9 C 29.5 93.8 32.0 94.6 34.4 95.4 C 33.2 95.9 32.0 96.4 30.8 96.9 C 33.0 98.9 35.3 100.8 37.3 103.1 C 33.7 100.6 31.0 96.7 26.6 95.7 C 27.0 98.7 27.6 101.7 28.0 104.7 C 26.4 102.6 25.1 100.3 24.0 97.9 C 21.9 99.7 19.9 101.6 17.7 103.4 C 18.9 100.7 20.2 98.1 21.6 95.5 C 19.1 94.6 16.5 93.7 14.0 92.7 L 14.0 92.3 C 16.6 92.3 19.3 92.2 22.0 92.3 C 21.5 89.9 21.0 87.5 20.7 85.1 Z"
     id="path84" />
  <path
     fill="#050305"
     stroke="#050305"
     stroke-width="0.09375"
     d=" M 147.0 86.7 C 148.5 88.9 150.0 91.1 151.9 93.0 C 153.7 91.6 155.4 90.0 157.2 88.6 C 156.1 90.8 154.9 92.9 154.0 95.2 C 156.4 96.2 158.8 97.0 161.1 98.1 C 158.8 98.5 156.4 98.5 154.0 98.5 C 154.6 104.0 154.8 109.6 154.5 115.2 C 154.3 112.2 154.6 109.1 154.2 106.1 C 153.5 103.8 152.1 101.8 150.9 99.8 C 148.9 101.6 147.0 103.5 144.6 104.9 C 145.6 102.4 146.9 100.1 148.1 97.8 C 145.7 96.9 143.2 96.1 140.9 94.8 C 143.6 94.5 146.3 94.5 149.0 94.3 C 148.2 91.4 145.6 90.0 143.6 88.0 C 145.0 88.8 146.4 89.8 147.7 90.8 C 147.5 89.8 147.2 87.7 147.0 86.7 Z"
     id="path86" />
  <path
     fill="#050305"
     stroke="#050305"
     stroke-width="0.09375"
     d=" M 185.0 102.5 C 188.3 105.5 190.3 109.5 192.8 113.1 C 195.4 109.7 198.4 106.6 201.9 104.3 C 200.3 108.5 198.0 112.4 196.1 116.6 C 200.3 117.6 204.7 117.8 208.4 120.2 C 204.1 120.9 199.7 120.8 195.3 120.8 C 196.0 125.0 197.0 129.2 198.0 133.4 C 194.7 130.6 193.6 126.2 191.1 122.8 C 188.0 125.7 185.1 128.9 181.4 131.0 C 182.7 127.0 185.0 123.3 186.7 119.5 C 182.8 117.9 178.6 117.4 174.7 115.8 C 179.0 115.4 183.3 115.2 187.6 115.2 C 186.8 110.9 186.0 106.7 185.0 102.5 Z"
     id="path88" />
  <path
     fill="#050305"
     stroke="#050305"
     stroke-width="0.09375"
     d=" M 39.7 104.8 C 43.4 107.7 47.2 110.6 50.3 114.1 C 46.7 111.1 42.9 108.3 39.7 104.8 Z"
     id="path90" />
  <path
     fill="#54a68e"
     stroke="#54a68e"
     stroke-width="0.09375"
     d=" M 52.2 116.2 C 52.7 116.8 52.7 116.8 52.2 116.2 Z"
     id="path92" />
  <path
     fill="#050305"
     stroke="#050305"
     stroke-width="0.09375"
     d=" M 155.2 115.6 C 156.9 121.7 157.9 128.1 158.9 134.3 C 157.1 128.3 156.1 121.9 155.2 115.6 Z"
     id="path94" />
  <path
     fill="#050305"
     stroke="#050305"
     stroke-width="0.09375"
     d=" M 54.8 117.8 C 57.2 119.3 59.5 121.0 61.3 123.2 C 59.0 121.6 56.8 119.8 54.8 117.8 Z"
     id="path96" />
  <path
     fill="#050305"
     stroke="#050305"
     stroke-width="0.09375"
     d=" M 62.3 124.2 C 62.8 124.8 62.8 124.8 62.3 124.2 Z"
     id="path98" />
  <path
     fill="#050305"
     stroke="#050305"
     stroke-width="0.09375"
     d=" M 65.0 127.2 C 66.3 126.7 68.2 128.4 67.7 129.8 C 66.5 130.1 64.6 128.5 65.0 127.2 Z"
     id="path100" />
  <path
     fill="#050305"
     stroke="#050305"
     stroke-width="0.09375"
     d=" M 70.1 130.7 C 72.4 132.1 74.6 133.9 76.3 136.1 C 74.1 134.5 72.0 132.6 70.1 130.7 Z"
     id="path102" />
  <path
     fill="#050305"
     stroke="#050305"
     stroke-width="0.09375"
     d=" M 159.0 134.7 C 160.7 141.1 162.4 147.7 162.8 154.3 C 161.5 147.8 159.9 141.3 159.0 134.7 Z"
     id="path104" />
  <path
     fill="#050305"
     stroke="#050305"
     stroke-width="0.09375"
     d=" M 76.7 137.0 C 79.3 138.9 81.7 141.0 83.9 143.3 C 81.2 141.6 78.8 139.4 76.7 137.0 Z"
     id="path106" />
  <path
     fill="#050305"
     stroke="#050305"
     stroke-width="0.09375"
     d=" M 86.2 144.2 C 87.4 143.9 89.4 145.4 89.1 146.7 C 87.7 147.2 85.8 145.6 86.2 144.2 Z"
     id="path108" />
  <path
     fill="#050305"
     stroke="#050305"
     stroke-width="0.09375"
     d=" M 89.7 148.0 C 93.0 150.5 96.2 153.2 99.1 156.1 C 95.7 153.7 92.5 151.1 89.7 148.0 Z"
     id="path110" />
  <path
     fill="#050305"
     stroke="#050305"
     stroke-width="0.09375"
     d=" M 163.3 154.6 C 164.5 158.0 164.4 161.7 165.2 165.1 C 167.8 163.1 169.4 160.2 172.1 158.3 C 170.9 161.4 169.2 164.4 168.3 167.6 C 178.7 166.8 189.1 168.2 199.5 168.6 C 189.5 169.5 179.6 166.9 169.6 168.2 C 172.1 169.2 174.8 169.5 177.4 170.3 C 174.3 170.5 171.1 170.5 168.0 170.5 C 168.3 173.7 168.7 176.9 169.0 180.2 C 167.6 177.4 165.9 174.8 164.2 172.2 C 161.6 174.5 159.2 176.9 156.4 179.0 C 157.7 175.8 159.4 172.9 160.8 169.9 C 154.9 168.0 148.7 168.9 142.6 168.7 C 146.1 168.0 149.8 168.5 153.3 167.4 C 155.9 166.6 158.8 166.8 161.5 166.7 C 160.9 163.5 160.1 160.2 159.8 156.9 C 161.3 158.8 162.7 160.9 164.2 162.8 C 164.0 160.0 163.4 157.3 163.3 154.6 Z"
     id="path112" />
  <path
     fill="#54a68e"
     stroke="#54a68e"
     stroke-width="0.09375"
     d=" M 101.3 157.2 C 101.8 157.8 101.8 157.8 101.3 157.2 Z"
     id="path114" />
  <path
     fill="#050305"
     stroke="#050305"
     stroke-width="0.09375"
     d=" M 102.7 159.0 C 105.5 161.0 107.9 163.3 110.5 165.5 C 110.7 164.9 111.3 163.7 111.5 163.1 C 112.4 164.8 113.4 166.4 114.3 168.1 C 115.7 166.4 117.0 164.8 118.7 163.4 C 117.9 165.3 117.0 167.2 116.1 169.1 C 117.8 169.5 119.5 169.9 121.2 170.3 C 119.4 171.1 117.5 171.3 115.6 171.8 C 115.9 174.0 116.2 176.1 116.5 178.3 C 115.6 176.3 114.8 174.4 113.9 172.4 C 112.0 174.0 110.2 175.6 108.4 177.2 C 109.4 175.0 110.5 172.8 111.3 170.5 C 109.5 170.1 107.6 169.7 105.7 169.4 C 107.9 169.2 110.2 169.0 112.4 168.8 C 110.2 164.6 105.6 162.6 102.7 159.0 Z"
     id="path116" />
  <path
     fill="#050305"
     stroke="#050305"
     stroke-width="0.09375"
     d=" M 242.8 160.0 C 244.9 162.4 246.3 165.3 247.4 168.4 C 250.0 166.0 252.4 163.6 255.2 161.6 C 254.0 164.5 252.5 167.2 251.0 169.9 C 254.7 171.4 258.6 172.6 262.4 173.7 C 258.3 173.7 254.1 173.7 250.0 173.8 C 250.7 176.9 251.4 180.1 251.7 183.3 C 249.9 181.4 248.5 179.2 247.1 177.0 C 246.9 177.8 246.6 179.5 246.4 180.3 C 246.5 179.2 246.6 177.0 246.7 175.9 C 244.2 178.1 241.9 180.5 239.2 182.5 C 240.6 179.2 242.4 176.1 243.9 172.9 C 240.8 171.7 237.6 170.9 234.5 169.7 C 237.8 169.4 241.1 169.5 244.4 169.5 C 243.8 166.3 243.1 163.2 242.8 160.0 Z"
     id="path118" />
  <path
     fill="#54a68e"
     stroke="#54a68e"
     stroke-width="0.09375"
     d=" M 60.4 172.6 C 63.6 172.5 66.9 172.0 69.9 173.4 C 74.7 175.3 78.4 179.3 81.8 183.1 C 85.2 187.0 88.2 191.5 89.1 196.6 C 90.8 205.9 92.3 215.5 97.1 223.8 C 100.2 229.0 102.3 234.9 106.6 239.4 C 110.3 243.2 114.2 247.2 119.2 249.0 C 126.4 251.7 133.7 254.2 141.3 254.9 C 145.1 255.5 149.5 254.8 152.4 257.9 C 146.7 259.3 140.8 258.2 135.1 257.5 C 128.3 256.7 121.6 254.6 115.7 251.2 C 111.5 248.7 106.4 246.9 103.7 242.5 C 99.0 235.1 93.8 227.8 90.7 219.6 C 88.7 212.0 88.7 203.9 85.5 196.6 C 82.3 189.1 77.1 181.6 69.0 179.1 C 70.2 182.8 72.4 186.1 74.4 189.5 C 76.7 193.5 76.8 198.3 76.3 202.8 C 71.6 201.0 68.9 196.3 64.1 194.9 C 65.1 199.5 68.0 203.7 67.6 208.6 C 60.4 206.3 56.7 198.5 49.1 197.0 C 49.3 207.0 63.5 209.3 62.7 219.6 C 56.9 218.5 51.6 215.8 46.0 214.2 C 48.8 218.3 53.3 221.2 54.7 226.2 C 50.4 226.6 46.1 226.5 41.9 226.5 C 47.0 230.1 52.5 233.1 58.1 236.1 C 63.2 238.6 64.9 244.5 68.6 248.4 C 73.2 253.2 75.6 260.0 81.3 263.8 C 86.4 267.4 91.1 271.8 97.0 274.2 C 105.8 277.6 113.1 284.0 122.0 287.2 C 126.7 288.8 131.3 291.0 136.1 292.2 C 139.4 293.0 143.0 293.3 145.4 296.0 C 138.5 297.6 131.6 295.2 125.2 292.6 C 116.6 288.8 108.0 284.9 99.9 279.9 C 93.0 275.6 84.9 272.9 79.0 267.0 C 75.3 263.1 71.2 259.4 68.2 254.8 C 64.9 249.6 61.7 244.1 56.6 240.3 C 48.8 233.4 38.4 231.1 28.8 227.9 C 26.5 227.4 23.7 224.3 26.3 222.4 C 30.6 220.4 35.9 222.0 39.9 219.2 C 36.8 215.0 31.0 213.4 28.8 208.4 C 35.9 205.9 43.1 209.2 50.2 209.7 C 50.0 203.6 43.6 200.8 41.2 195.7 C 39.9 193.9 41.9 191.0 44.0 191.6 C 48.2 192.2 51.9 194.2 56.0 194.9 C 55.4 190.0 51.1 186.6 50.4 181.7 C 56.6 180.8 61.5 184.9 66.9 187.0 C 64.8 182.2 59.9 178.4 60.4 172.6 Z"
     id="path120" />
  <path
     fill="#050305"
     stroke="#050305"
     stroke-width="0.09375"
     d=" M 262.6 174.0 C 272.6 176.0 282.4 179.3 292.3 181.8 C 305.2 183.6 317.5 188.0 330.1 191.2 C 335.4 192.5 340.6 194.6 346.0 195.3 C 349.9 195.8 353.9 196.4 357.4 198.1 C 352.5 197.1 347.6 195.3 342.5 195.0 C 324.7 190.8 307.3 184.5 289.1 181.6 C 280.3 178.8 271.3 176.9 262.6 174.0 Z"
     id="path122" />
  <path
     fill="#050305"
     stroke="#050305"
     stroke-width="0.09375"
     d=" M 237.9 209.6 C 240.7 200.0 242.9 190.2 245.8 180.7 C 242.2 198.3 236.1 215.3 232.7 233.0 L 232.5 233.7 C 233.7 225.6 235.7 217.5 237.9 209.6 Z"
     id="path124" />
  <path
     fill="#fcfefc"
     stroke="#fcfefc"
     stroke-width="0.09375"
     d=" M 87.3 183.6 L 87.8 183.1 C 92.6 185.8 96.9 189.3 101.6 192.4 C 105.6 195.2 110.3 196.9 114.4 199.5 C 120.1 203.2 126.2 206.2 132.6 208.2 C 143.7 211.1 150.1 221.9 154.5 231.6 C 157.1 238.4 165.5 240.2 168.8 246.4 C 170.1 248.5 168.6 250.7 166.7 251.8 C 163.5 253.5 159.7 254.2 156.0 254.1 C 143.5 253.1 130.7 251.8 119.0 247.1 C 115.6 245.6 113.2 242.8 110.6 240.4 C 107.6 237.4 104.3 234.4 102.6 230.3 C 99.6 223.6 95.6 217.1 94.1 209.7 C 92.2 201.0 89.8 192.5 86.9 184.1 L 87.3 183.6 Z"
     id="path126" />
  <path
     fill="#fcfefc"
     stroke="#fcfefc"
     stroke-width="0.09375"
     d=" M 78.5 199.1 C 78.0 195.8 77.3 192.5 77.6 189.2 C 83.0 193.1 84.6 199.7 85.8 205.9 C 88.1 214.4 89.2 223.5 93.8 231.2 C 96.3 235.4 99.2 239.2 101.8 243.3 C 104.9 248.4 110.8 250.3 115.5 253.5 C 130.5 261.8 148.4 260.8 165.0 260.6 C 168.6 260.5 171.6 258.2 175.1 257.3 C 176.5 257.4 177.6 258.4 178.8 259.2 C 183.3 262.6 187.5 266.5 191.2 270.9 C 184.2 271.4 177.2 271.7 170.3 272.8 C 177.9 273.7 185.5 271.7 193.2 272.0 C 194.3 274.4 194.5 277.1 194.2 279.7 C 189.5 280.3 184.8 281.2 180.8 283.9 C 172.7 289.2 162.9 290.0 153.6 291.7 C 147.7 293.0 141.7 291.4 136.0 290.0 C 127.8 288.0 120.0 284.8 112.9 280.2 C 105.5 275.2 96.4 273.3 89.6 267.4 C 85.2 263.5 79.3 261.0 76.2 255.7 C 74.9 253.5 73.5 251.3 72.0 249.3 C 74.9 247.1 77.1 244.2 79.6 241.5 C 81.7 244.7 83.8 247.9 86.5 250.6 C 85.7 247.0 85.0 243.5 84.3 239.9 C 88.0 239.7 91.7 239.5 95.4 239.3 C 92.1 237.8 88.8 236.4 85.3 235.3 C 87.0 232.0 88.7 228.6 90.0 225.1 C 87.0 227.7 84.1 230.5 81.2 233.1 C 79.0 229.9 76.9 226.4 75.4 222.7 C 76.1 226.8 76.4 230.9 76.9 235.0 C 73.2 235.0 69.5 235.0 65.8 235.0 C 69.5 236.0 73.2 237.2 76.7 238.6 C 75.3 242.0 73.6 245.2 72.2 248.5 C 69.2 245.9 67.0 242.5 64.6 239.3 C 62.2 235.9 58.0 234.7 55.3 231.7 C 55.2 228.5 56.8 225.4 57.5 222.3 C 60.2 221.6 63.9 222.3 65.6 219.6 C 65.2 216.4 63.8 213.5 62.7 210.6 C 64.7 210.4 66.7 210.3 68.7 210.2 C 71.3 207.5 74.5 205.6 77.5 203.4 C 78.9 202.5 78.6 200.6 78.5 199.1 Z"
     id="path128" />
  <path
     fill="#050305"
     stroke="#050305"
     stroke-width="0.09375"
     d=" M 357.6 197.9 C 372.8 201.3 387.5 207.0 402.9 209.3 C 407.5 210.4 411.8 211.9 416.4 212.8 C 416.1 210.8 415.8 208.8 415.5 206.8 C 416.4 208.5 417.2 210.2 418.1 211.8 C 419.7 210.5 421.2 209.3 422.8 208.2 C 422.2 210.0 421.4 211.8 420.6 213.6 C 422.5 214.3 424.5 214.9 426.3 215.9 C 432.1 219.3 438.7 220.6 444.9 223.0 C 438.7 221.7 432.6 219.5 426.8 216.9 C 424.7 216.0 422.3 216.1 420.1 216.1 C 420.4 218.3 420.8 220.4 421.1 222.6 C 419.8 221.0 418.7 219.2 417.6 217.4 C 416.3 218.9 415.0 220.3 413.5 221.6 C 414.2 219.5 415.2 217.5 416.2 215.4 C 414.1 214.8 412.0 214.1 409.9 213.5 C 410.7 213.3 412.4 212.7 413.2 212.4 C 406.4 210.9 399.8 208.6 392.8 207.9 C 381.1 204.6 369.1 201.9 357.6 197.9 Z"
     id="path130" />
  <path
     fill="#050305"
     stroke="#050305"
     stroke-width="0.09375"
     d=" M 75.4 222.7 C 76.9 226.4 79.0 229.9 81.2 233.1 C 84.1 230.5 87.0 227.7 90.0 225.1 C 88.7 228.6 87.0 232.0 85.3 235.3 C 88.8 236.4 92.1 237.8 95.4 239.3 C 91.7 239.5 88.0 239.7 84.3 239.9 C 85.0 243.5 85.7 247.0 86.5 250.6 C 83.8 247.9 81.7 244.7 79.6 241.5 C 77.1 244.2 74.9 247.1 72.0 249.3 L 72.2 248.5 C 73.6 245.2 75.3 242.0 76.7 238.6 C 73.2 237.2 69.5 236.0 65.8 235.0 C 69.5 235.0 73.2 235.0 76.9 235.0 C 76.4 230.9 76.1 226.8 75.4 222.7 Z"
     id="path132" />
  <path
     fill="#050305"
     stroke="#050305"
     stroke-width="0.09375"
     d=" M 445.7 223.0 C 452.3 224.2 458.3 227.6 464.7 229.4 C 471.7 232.1 478.7 234.8 486.0 236.4 C 497.2 239.9 507.9 244.7 519.1 248.1 C 527.2 249.8 534.8 252.9 542.4 256.1 C 535.8 254.4 529.8 251.3 523.3 249.5 C 507.3 245.8 492.6 237.8 476.5 234.3 C 466.3 230.5 455.9 226.9 445.7 223.0 Z"
     id="path134" />
  <path
     fill="#fcfefc"
     stroke="#fcfefc"
     stroke-width="0.09375"
     d=" M 207.7 237.5 C 208.8 234.5 211.4 231.0 215.0 231.4 C 218.6 231.2 221.3 233.9 224.1 235.8 C 226.6 237.8 229.9 239.9 230.1 243.5 C 227.6 250.3 226.3 257.5 224.0 264.4 C 221.9 261.8 220.3 258.9 218.7 256.1 C 219.1 259.7 219.9 263.2 220.4 266.7 C 216.5 266.8 212.7 266.8 208.8 267.0 C 209.4 267.4 210.7 268.2 211.4 268.5 C 207.7 270.4 203.5 270.0 199.5 269.9 C 198.8 258.4 204.7 248.2 207.7 237.5 Z"
     id="path136" />
  <path
     fill="#050305"
     stroke="#050305"
     stroke-width="0.09375"
     d=" M 88.6 241.2 C 93.0 243.8 97.5 246.4 101.8 249.2 C 97.1 247.0 92.6 244.5 88.6 241.2 Z"
     id="path138" />
  <path
     fill="#050305"
     stroke="#050305"
     stroke-width="0.09375"
     d=" M 224.0 264.4 C 226.3 257.5 227.6 250.3 230.1 243.5 C 228.8 250.4 226.4 257.1 224.8 263.9 C 227.8 262.1 230.6 260.0 233.4 257.8 C 231.6 261.1 229.6 264.3 227.9 267.7 C 231.1 268.9 234.5 269.8 237.1 272.1 C 239.6 274.7 243.6 274.5 246.8 275.8 L 245.7 275.8 C 239.7 274.3 233.7 271.5 227.3 272.5 C 228.1 276.0 228.9 279.5 229.4 283.0 C 227.8 281.1 226.4 279.0 224.9 277.1 C 225.0 284.9 227.0 292.6 226.7 300.5 C 225.5 292.0 225.1 283.5 223.9 275.0 C 223.5 274.8 222.6 274.4 222.2 274.2 C 219.7 276.6 217.4 279.3 214.6 281.4 C 216.0 277.8 218.1 274.6 220.1 271.3 C 217.9 270.7 215.7 270.0 213.4 269.6 C 212.7 269.3 212.1 268.9 211.4 268.5 C 210.7 268.2 209.4 267.4 208.8 267.0 C 212.7 266.8 216.5 266.8 220.4 266.7 C 219.9 263.2 219.1 259.7 218.7 256.1 C 220.3 258.9 221.9 261.8 224.0 264.4 Z"
     id="path140" />
  <path
     fill="#fcfefc"
     stroke="#fcfefc"
     stroke-width="0.09375"
     d=" M 230.1 243.5 C 234.3 245.7 236.4 250.2 238.9 254.1 C 242.4 261.0 246.6 267.9 246.8 275.8 C 243.6 274.5 239.6 274.7 237.1 272.1 C 234.5 269.8 231.1 268.9 227.9 267.7 C 229.6 264.3 231.6 261.1 233.4 257.8 C 230.6 260.0 227.8 262.1 224.8 263.9 C 226.4 257.1 228.8 250.4 230.1 243.5 Z"
     id="path142" />
  <path
     fill="#050305"
     stroke="#050305"
     stroke-width="0.09375"
     d=" M 542.9 245.9 C 545.5 248.5 547.6 251.6 548.6 255.2 C 551.5 252.7 554.1 249.8 557.4 247.8 C 555.9 251.3 554.1 254.6 552.5 258.0 C 556.7 259.4 560.7 261.4 565.1 261.8 C 560.6 261.6 556.2 261.9 551.8 261.9 C 552.5 265.9 553.4 269.7 554.0 273.7 C 551.6 270.6 549.7 267.3 547.6 263.9 C 544.9 266.6 542.2 269.4 539.1 271.6 C 540.4 268.5 542.1 265.6 543.4 262.5 C 537.1 265.1 532.6 270.3 526.6 273.3 C 520.3 276.3 515.1 281.2 508.8 284.2 C 517.7 277.4 528.1 272.9 536.7 265.8 C 539.0 264.1 541.5 262.8 544.0 261.5 C 540.5 260.3 537.0 259.1 533.7 257.5 C 537.5 257.0 541.3 257.0 545.1 256.3 C 544.4 252.9 543.7 249.4 542.9 245.9 Z"
     id="path144" />
  <path
     fill="#050305"
     stroke="#050305"
     stroke-width="0.09375"
     d=" M 102.9 249.8 C 107.2 251.9 111.3 254.5 115.3 257.2 C 110.9 255.2 106.8 252.6 102.9 249.8 Z"
     id="path146" />
  <path
     fill="#050305"
     stroke="#050305"
     stroke-width="0.09375"
     d=" M 115.6 258.2 C 119.8 260.5 124.4 262.1 128.4 264.8 C 124.1 262.6 119.4 261.1 115.6 258.2 Z"
     id="path148" />
  <path
     fill="#050305"
     stroke="#050305"
     stroke-width="0.09375"
     d=" M 565.8 262.0 C 581.0 265.2 596.1 269.3 611.3 272.9 C 616.7 274.6 622.6 274.4 628.1 276.1 C 632.8 277.5 637.8 278.1 642.5 279.9 C 635.2 278.7 628.1 276.4 620.9 274.9 C 609.9 273.9 599.5 270.2 588.8 267.9 C 581.2 265.8 573.3 264.5 565.8 262.0 Z"
     id="path150" />
  <path
     fill="#050305"
     stroke="#050305"
     stroke-width="0.09375"
     d=" M 128.8 265.8 C 132.1 267.2 134.8 269.5 138.0 270.9 C 138.5 270.7 139.5 270.4 140.0 270.2 C 140.6 271.5 141.2 272.7 141.8 273.9 C 143.4 272.6 144.9 271.3 146.6 270.0 C 145.8 271.7 145.1 273.3 144.3 274.9 C 152.7 274.4 161.1 272.6 169.5 273.4 C 161.2 273.9 152.8 274.1 144.6 275.2 C 146.4 276.0 148.3 276.7 150.2 277.4 C 147.9 277.5 145.6 277.7 143.3 277.8 C 143.7 279.8 144.1 281.9 144.3 283.9 C 143.1 282.4 142.2 280.8 141.3 279.1 C 139.8 280.5 138.2 281.9 136.6 283.2 C 137.5 281.1 138.5 279.1 139.5 277.1 C 137.3 276.3 135.1 275.5 132.9 274.7 C 135.4 274.8 137.8 274.8 140.2 274.6 C 139.9 274.1 139.4 272.9 139.1 272.3 C 135.8 270.0 132.0 268.4 128.8 265.8 Z"
     id="path152" />
  <path
     fill="#fcfefc"
     stroke="#fcfefc"
     stroke-width="0.09375"
     d=" M 199.2 271.4 C 204.0 271.2 208.7 270.4 213.4 269.6 C 215.7 270.0 217.9 270.7 220.1 271.3 C 218.1 274.6 216.0 277.8 214.6 281.4 C 217.4 279.3 219.7 276.6 222.2 274.2 C 222.6 274.4 223.5 274.8 223.9 275.0 C 225.1 283.5 225.5 292.0 226.7 300.5 C 227.0 292.6 225.0 284.9 224.9 277.1 C 226.4 279.0 227.8 281.1 229.4 283.0 C 228.9 279.5 228.1 276.0 227.3 272.5 C 233.7 271.5 239.7 274.3 245.7 275.8 C 247.3 277.0 248.6 278.7 249.2 280.7 C 251.7 288.4 254.6 296.1 256.1 304.1 C 256.7 307.4 255.1 310.7 256.0 313.9 C 257.5 319.5 260.0 325.1 259.4 331.0 C 258.5 339.9 256.4 348.7 252.9 357.0 C 249.7 363.5 247.1 370.3 243.7 376.7 C 239.2 383.8 235.6 391.5 233.3 399.6 C 229.6 411.5 221.5 421.2 213.5 430.5 C 210.9 433.3 209.2 436.7 208.2 440.4 C 204.6 452.9 198.8 464.7 194.1 476.8 C 193.5 476.4 192.9 476.0 192.3 475.6 C 192.1 466.3 196.0 457.3 195.5 448.0 C 195.4 445.8 194.0 444.0 193.1 442.1 C 191.1 443.3 188.4 444.2 187.6 446.7 C 183.0 458.5 181.5 471.2 175.4 482.4 C 174.8 482.5 173.6 482.7 173.0 482.7 C 171.1 472.2 177.3 462.6 181.1 453.2 C 183.1 446.1 188.8 440.0 187.8 432.1 C 186.1 432.0 184.0 430.9 182.5 432.4 C 178.9 435.5 176.7 440.0 173.7 443.7 C 170.3 447.7 168.2 452.5 166.0 457.2 C 164.8 457.1 163.6 457.0 162.5 456.9 C 163.8 453.6 165.1 450.3 166.5 447.0 C 168.7 441.2 172.4 436.2 175.2 430.8 C 177.0 428.0 173.8 425.0 171.1 426.9 C 166.3 430.5 160.9 433.4 157.2 438.2 C 154.0 441.9 151.3 446.6 146.2 448.0 C 147.4 436.0 157.3 427.8 162.9 417.9 C 158.2 412.9 151.6 417.2 146.0 417.8 C 146.5 416.5 146.7 414.9 147.8 413.9 C 157.2 405.0 168.8 398.6 180.8 393.9 C 187.4 391.2 195.2 391.5 200.9 386.9 C 205.9 382.5 206.1 375.2 205.1 369.1 C 203.1 361.0 202.3 352.3 205.5 344.4 C 207.9 337.9 208.6 330.9 209.3 324.0 C 208.8 318.1 208.0 312.2 206.5 306.5 C 202.6 295.2 201.2 283.2 199.2 271.4 Z"
     id="path154" />
  <path
     fill="#050305"
     stroke="#050305"
     stroke-width="0.09375"
     d=" M 646.8 270.5 C 648.9 273.2 651.4 275.7 652.8 279.0 C 655.4 276.5 658.3 274.3 661.4 272.6 C 659.5 275.7 657.8 278.9 656.2 282.2 C 659.8 283.5 663.5 284.5 666.7 286.5 C 663.0 286.8 659.4 286.9 655.7 287.1 C 656.5 290.7 657.2 294.4 657.8 298.1 C 655.5 294.9 653.3 291.6 651.8 287.9 C 648.8 290.7 645.9 293.5 642.7 296.0 C 644.3 292.5 646.0 289.1 648.2 285.9 C 644.9 284.7 641.4 283.8 638.5 281.8 C 641.9 281.1 645.4 281.2 648.9 280.9 C 648.2 277.5 647.3 274.0 646.8 270.5 Z"
     id="path156" />
  <path
     fill="#9cead8"
     stroke="#9cead8"
     stroke-width="0.09375"
     d=" M 476.4 274.6 C 479.7 274.0 483.1 274.5 486.4 275.1 C 485.5 277.3 485.0 280.4 482.2 281.0 C 470.6 284.9 457.5 285.8 447.3 293.3 C 442.3 297.0 436.7 300.3 433.3 305.8 C 432.5 305.8 431.0 305.7 430.3 305.7 C 432.8 300.2 438.6 297.7 442.9 293.9 C 448.8 288.7 456.4 286.3 463.7 283.6 C 469.9 281.4 476.3 280.1 482.6 278.6 C 482.6 277.5 482.7 276.4 482.7 275.3 C 468.3 277.5 454.1 282.1 441.6 289.6 C 433.8 294.3 429.1 303.7 419.8 306.0 C 428.1 299.5 434.5 290.8 443.9 286.0 C 453.9 280.1 465.0 276.3 476.4 274.6 Z"
     id="path158" />
  <path
     fill="#9cead8"
     stroke="#9cead8"
     stroke-width="0.09375"
     d=" M 257.8 293.9 C 256.8 289.1 254.3 284.5 255.0 279.4 L 255.9 280.3 C 258.3 285.5 258.9 291.3 260.2 296.9 C 260.6 298.3 260.8 300.0 262.3 300.8 C 266.2 303.1 270.7 304.7 274.3 307.7 C 282.6 314.6 292.4 319.5 302.4 323.6 C 309.2 326.4 316.7 326.6 323.8 327.5 C 339.9 329.4 355.9 332.2 372.1 331.7 C 377.0 331.5 381.5 329.0 386.1 327.4 C 390.9 325.7 395.9 324.8 401.0 324.5 C 403.5 324.1 406.5 324.3 408.3 322.3 C 412.6 317.7 415.4 312.0 419.3 307.0 C 419.8 307.0 420.8 307.0 421.3 307.0 C 418.2 312.2 414.8 317.2 411.4 322.3 C 410.2 323.8 409.1 325.9 406.9 326.0 C 401.8 326.8 396.4 325.9 391.4 327.7 C 385.6 329.9 380.3 333.7 374.0 334.3 C 364.1 335.0 354.2 334.3 344.4 332.9 C 336.5 331.7 328.4 331.5 320.6 329.6 C 312.6 327.6 304.2 327.0 296.7 323.4 C 288.1 319.4 279.8 314.6 272.3 308.7 C 268.8 305.9 264.3 304.9 260.7 302.3 C 258.9 299.8 258.7 296.7 257.8 293.9 Z"
     id="path160" />
  <path
     fill="#050305"
     stroke="#050305"
     stroke-width="0.09375"
     d=" M 255.0 279.4 C 260.7 282.2 266.7 284.2 272.4 286.9 C 266.7 285.2 261.2 282.9 255.9 280.3 L 255.0 279.4 Z"
     id="path162" />
  <path
     fill="#050305"
     stroke="#050305"
     stroke-width="0.09375"
     d=" M 507.2 285.2 C 508.7 285.7 507.0 287.7 506.0 287.5 C 504.4 286.9 506.1 285.0 507.2 285.2 Z"
     id="path164" />
  <path
     fill="#050305"
     stroke="#050305"
     stroke-width="0.09375"
     d=" M 276.7 287.9 C 280.8 289.1 284.8 290.7 288.4 293.1 C 284.4 291.4 280.5 289.9 276.7 287.9 Z"
     id="path166" />
  <path
     fill="#050305"
     stroke="#050305"
     stroke-width="0.09375"
     d=" M 488.3 297.5 C 493.4 294.5 497.6 290.3 502.9 287.6 C 496.8 291.9 491.1 296.9 484.3 300.1 C 482.5 300.8 481.7 302.6 480.6 304.0 C 484.9 307.3 489.4 310.3 494.0 313.3 C 489.3 311.3 485.6 307.4 480.5 306.6 C 480.7 308.9 481.0 311.1 481.2 313.4 C 480.1 311.8 479.0 310.2 477.9 308.6 C 475.9 310.0 473.5 310.5 471.3 311.5 C 468.9 313.4 467.1 316.0 464.7 317.9 C 468.0 313.8 472.1 310.3 475.5 306.1 C 468.7 305.1 461.8 305.9 455.0 305.8 C 446.6 305.6 438.2 306.3 429.8 306.4 C 429.9 306.2 430.1 305.9 430.3 305.7 C 431.0 305.7 432.5 305.8 433.3 305.8 C 442.9 305.5 452.4 305.0 462.0 305.3 C 466.8 305.5 471.3 304.0 476.1 303.8 C 475.6 302.1 475.2 300.4 474.9 298.7 C 476.1 299.9 477.3 301.1 478.5 302.4 C 481.7 300.6 485.2 299.5 488.3 297.5 Z"
     id="path168" />
  <path
     fill="#050305"
     stroke="#050305"
     stroke-width="0.09375"
     d=" M 660.0 288.2 C 661.3 287.8 661.9 288.3 661.7 289.7 C 660.3 290.0 659.7 289.5 660.0 288.2 Z"
     id="path170" />
  <path
     fill="#050305"
     stroke="#050305"
     stroke-width="0.09375"
     d=" M 663.3 291.3 C 664.6 291.1 665.1 291.7 664.7 293.1 C 663.4 293.3 662.9 292.8 663.3 291.3 Z"
     id="path172" />
  <path
     fill="#050305"
     stroke="#050305"
     stroke-width="0.09375"
     d=" M 288.6 293.0 C 296.0 295.0 302.5 299.3 310.0 301.0 C 302.4 299.8 295.6 295.9 288.6 293.0 Z"
     id="path174" />
  <path
     fill="#54a68e"
     stroke="#54a68e"
     stroke-width="0.09375"
     d=" M 666.2 295.3 C 666.8 295.8 666.8 295.8 666.2 295.3 Z"
     id="path176" />
  <path
     fill="#050305"
     stroke="#050305"
     stroke-width="0.09375"
     d=" M 319.8 295.5 C 321.9 298.2 324.0 300.9 325.9 303.8 C 328.6 301.6 331.6 299.6 334.5 297.6 C 332.7 300.8 330.8 303.9 329.2 307.2 C 344.7 307.6 360.2 306.9 375.7 306.7 C 376.9 306.8 378.1 306.9 379.3 307.0 C 363.7 307.5 348.0 307.7 332.3 308.1 C 334.8 309.2 337.4 310.2 339.8 311.5 C 336.1 311.8 332.4 311.9 328.6 312.1 C 329.5 315.7 330.2 319.4 330.8 323.1 C 328.5 320.0 326.5 316.7 324.7 313.3 C 321.6 315.8 318.8 318.6 315.7 321.1 C 317.2 317.5 319.2 314.2 321.3 311.0 C 317.7 309.7 314.1 308.4 310.7 306.7 C 314.4 306.3 318.1 306.2 321.8 305.5 C 321.1 302.2 320.3 298.8 319.8 295.5 Z"
     id="path178" />
  <path
     fill="#c8c9c8"
     stroke="#c8c9c8"
     stroke-width="0.09375"
     d=" M 667.3 296.8 C 670.2 298.3 672.8 300.4 674.7 303.1 C 671.6 301.8 668.8 299.8 667.3 296.8 Z"
     id="path180" />
  <path
     fill="#050305"
     stroke="#050305"
     stroke-width="0.09375"
     d=" M 227.3 300.5 C 228.0 306.4 228.6 312.5 228.8 318.4 C 227.7 312.5 227.2 306.5 227.3 300.5 Z"
     id="path182" />
  <path
     fill="#050305"
     stroke="#050305"
     stroke-width="0.09375"
     d=" M 310.6 301.1 C 313.7 302.2 316.8 303.3 319.6 305.0 C 316.5 304.1 313.4 302.8 310.6 301.1 Z"
     id="path184" />
  <path
     fill="#050305"
     stroke="#050305"
     stroke-width="0.09375"
     d=" M 675.3 304.2 C 676.6 303.7 678.3 305.4 677.8 306.7 C 676.6 307.3 674.8 305.5 675.3 304.2 Z"
     id="path186" />
  <path
     fill="#54a68e"
     stroke="#54a68e"
     stroke-width="0.09375"
     d=" M 679.2 309.2 C 679.7 309.7 679.7 309.7 679.2 309.2 Z"
     id="path188" />
  <path
     fill="#54a68e"
     stroke="#54a68e"
     stroke-width="0.09375"
     d=" M 523.3 311.6 C 534.2 311.0 545.2 312.2 556.1 310.6 C 569.7 310.1 583.3 310.6 597.0 310.5 C 603.1 310.4 609.2 310.1 615.2 311.2 C 623.5 312.7 631.8 314.0 639.9 316.1 C 648.2 318.2 656.9 318.0 664.9 321.2 C 669.2 323.3 673.5 325.7 676.9 329.1 C 679.9 333.3 682.9 338.8 681.1 344.0 C 679.6 347.8 675.0 346.2 672.0 346.8 C 667.9 346.6 665.1 350.4 664.8 354.0 C 663.9 361.9 664.8 370.7 670.0 377.0 C 673.2 380.8 675.3 386.8 672.2 391.1 C 667.0 396.1 659.0 394.2 652.9 397.0 C 650.2 398.7 647.8 401.6 648.0 405.0 C 648.4 411.1 651.0 416.9 651.4 423.0 C 651.8 427.8 647.7 432.4 642.9 432.5 C 636.9 432.7 631.0 430.6 625.1 432.0 C 621.5 432.6 618.4 435.5 617.9 439.1 C 616.9 445.2 618.1 451.4 617.2 457.5 C 616.3 460.9 612.0 461.3 609.0 461.4 C 602.2 461.7 596.4 456.2 589.5 457.3 C 585.8 457.7 585.7 462.2 584.9 465.0 C 583.7 469.7 584.0 475.0 581.1 479.1 C 576.4 483.2 569.8 481.3 564.7 479.3 C 561.6 478.4 557.7 476.3 554.8 478.8 C 550.2 483.5 550.3 490.6 546.9 495.9 C 545.0 497.7 542.0 497.6 539.6 497.3 C 534.3 496.7 531.2 491.4 526.0 490.5 C 522.5 490.1 521.8 494.4 520.7 496.9 C 519.0 500.9 517.7 506.6 512.7 507.5 C 507.6 507.8 504.0 503.1 499.1 502.6 C 496.8 503.2 495.7 505.7 494.2 507.3 C 492.1 510.4 488.3 513.1 484.4 512.4 C 480.1 510.9 476.7 507.7 473.5 504.6 C 478.8 501.7 481.7 509.5 486.7 508.7 C 491.7 506.5 493.1 498.7 499.1 498.3 C 503.8 497.7 506.9 502.0 511.0 503.3 C 516.1 501.5 516.6 495.1 519.3 491.1 C 520.8 487.8 524.8 487.3 528.0 487.6 C 532.0 487.7 534.8 491.0 538.1 492.9 C 540.0 494.1 542.9 494.3 544.5 492.4 C 548.0 488.3 547.1 482.3 549.9 477.9 C 552.9 473.8 558.6 474.2 563.0 475.0 C 567.6 475.7 572.1 478.5 576.9 477.2 C 581.5 473.8 581.0 467.2 582.3 462.1 C 582.7 457.7 586.3 453.2 591.0 453.4 C 598.0 453.6 603.9 458.8 611.0 458.4 C 613.8 458.5 614.8 455.1 615.3 452.9 C 615.1 446.7 613.5 440.6 614.8 434.5 C 615.3 432.2 617.5 430.6 619.6 429.9 C 627.0 428.0 634.5 431.9 642.0 430.0 C 646.2 429.1 649.0 424.3 648.0 420.1 C 647.6 416.8 644.1 415.7 641.8 414.0 C 634.6 409.7 629.9 402.5 623.1 397.9 C 623.8 405.3 629.0 411.6 629.0 419.2 C 627.5 419.6 626.0 419.2 624.8 418.3 C 619.7 414.8 616.5 409.2 611.3 405.8 C 612.2 411.6 614.9 416.9 616.9 422.4 C 618.0 424.1 616.2 425.5 615.3 426.9 C 609.2 422.2 603.4 417.0 597.6 412.0 C 598.1 419.4 602.4 426.0 602.5 433.6 C 595.2 433.0 590.1 427.4 585.0 423.0 C 582.4 420.5 580.3 424.5 578.6 426.1 C 576.6 421.4 574.9 416.5 573.9 411.4 C 571.9 402.2 565.9 394.6 562.3 386.0 C 560.1 379.4 557.2 372.8 552.4 367.6 C 548.0 363.0 545.0 357.0 539.8 353.2 C 536.1 350.5 532.7 347.2 528.6 345.3 C 522.7 342.5 516.5 340.3 510.0 339.7 C 501.0 338.8 491.9 338.0 483.1 335.7 C 475.8 333.9 468.4 332.6 461.1 330.7 C 458.8 330.2 456.6 328.9 455.0 327.1 C 455.6 326.7 456.8 326.0 457.4 325.6 C 462.5 327.8 468.0 329.0 473.6 329.7 C 478.9 330.4 483.5 327.1 488.3 325.5 C 493.0 323.3 498.8 322.2 501.5 317.4 C 501.8 317.3 502.3 317.1 502.5 317.0 C 506.5 317.3 510.3 315.7 514.1 315.1 C 513.4 316.6 512.9 318.3 511.4 319.2 C 504.2 324.3 494.9 325.1 487.7 330.1 C 486.7 332.5 489.5 333.3 491.2 333.9 C 500.2 336.3 509.6 336.9 518.7 338.6 C 524.5 339.8 530.7 340.8 535.5 344.5 C 540.5 348.4 545.8 352.2 549.4 357.5 C 552.9 362.6 558.1 366.5 560.4 372.2 C 563.4 379.2 566.5 386.2 570.3 392.8 C 573.3 398.0 573.9 404.3 577.7 409.2 C 581.9 415.1 587.0 421.2 594.1 423.6 C 595.1 422.7 595.4 421.6 595.0 420.3 C 593.3 412.7 586.9 406.6 587.5 398.4 C 589.2 398.6 591.2 398.2 592.8 399.3 C 597.6 402.5 600.4 407.7 604.0 412.1 C 605.2 413.7 607.1 414.4 608.9 415.2 C 606.8 406.6 600.5 399.8 596.9 391.8 C 596.8 390.9 596.5 389.1 596.4 388.3 C 602.8 389.5 607.6 394.5 612.0 399.0 C 613.9 401.4 615.9 404.0 618.9 405.1 C 617.3 398.9 613.2 393.7 608.9 389.1 C 607.5 387.3 605.4 385.4 605.6 383.0 C 606.6 380.5 609.5 381.6 611.2 382.7 C 614.7 385.1 617.9 387.9 621.4 390.4 C 626.4 393.8 629.3 399.6 634.9 402.1 C 635.1 395.6 629.5 391.7 626.1 386.9 C 622.7 382.0 616.7 379.7 613.2 374.9 C 609.1 369.3 602.9 365.8 598.8 360.2 C 595.5 355.8 590.8 352.9 586.7 349.3 C 580.7 343.6 573.2 339.4 565.6 336.2 C 559.3 333.5 553.4 330.1 546.9 327.9 C 539.4 325.7 531.4 326.9 523.9 324.9 C 518.6 323.3 517.1 313.1 523.3 311.6 Z"
     id="path190" />
  <path
     fill="#050305"
     stroke="#050305"
     stroke-width="0.09375"
     d=" M 681.1 311.2 C 682.5 310.9 683.1 311.5 682.8 312.8 C 681.4 313.1 680.9 312.5 681.1 311.2 Z"
     id="path192" />
  <path
     fill="#9cead8"
     stroke="#9cead8"
     stroke-width="0.09375"
     d=" M 576.0 313.5 C 583.0 313.9 590.0 312.1 597.0 312.7 C 602.6 313.2 608.3 313.2 613.9 314.0 C 625.8 315.5 637.1 319.6 649.1 320.7 C 659.9 321.8 670.6 326.9 677.1 335.9 C 678.4 338.1 679.3 341.3 677.2 343.3 C 673.8 344.1 670.2 343.1 666.8 343.8 C 663.5 346.2 662.0 350.4 661.5 354.3 C 661.1 360.2 662.1 366.1 663.4 371.8 C 664.5 376.5 667.8 380.1 669.5 384.4 C 670.5 387.2 668.5 390.1 665.9 391.1 C 660.9 393.2 655.2 392.4 650.1 394.3 C 646.4 395.8 645.1 399.9 643.3 403.1 C 640.6 402.3 639.7 399.5 638.6 397.2 C 636.2 391.7 631.5 387.8 627.7 383.3 C 623.8 378.5 618.5 375.2 614.3 370.6 C 610.4 366.2 605.3 363.0 601.9 358.1 C 599.0 353.6 594.2 351.2 590.5 347.5 C 587.6 344.7 584.8 341.7 581.0 340.1 C 573.4 336.6 566.3 332.1 558.7 328.5 C 549.9 324.8 540.1 324.9 530.8 323.5 C 527.3 323.0 522.6 321.3 522.7 317.1 C 523.5 314.9 525.8 313.7 528.0 313.5 C 533.2 312.9 538.4 314.7 543.6 314.1 C 554.3 312.7 565.2 313.7 576.0 313.5 Z"
     id="path194" />
  <path
     fill="#050305"
     stroke="#050305"
     stroke-width="0.09375"
     d=" M 685.0 314.2 C 686.4 313.9 686.9 314.4 686.7 315.7 C 685.3 316.0 684.7 315.5 685.0 314.2 Z"
     id="path196" />
  <path
     fill="#fcfefc"
     stroke="#fcfefc"
     stroke-width="0.09375"
     d=" M 544.5 316.2 C 558.6 314.2 572.9 316.6 587.0 314.7 C 591.9 314.2 596.8 315.6 601.7 315.4 C 614.4 315.1 626.5 319.5 638.9 321.9 C 647.2 323.8 655.9 324.0 663.9 327.1 C 668.4 329.9 672.4 333.7 675.3 338.2 C 675.3 338.6 675.2 339.6 675.2 340.0 C 671.8 340.9 668.0 340.2 665.0 342.0 C 660.0 345.7 658.2 352.5 658.7 358.5 C 659.4 364.0 659.3 370.0 662.2 374.9 C 664.3 378.9 667.9 383.1 666.2 387.8 C 663.0 390.9 658.1 390.3 654.2 391.4 C 649.2 391.9 645.3 395.1 641.3 397.7 C 634.7 384.6 622.5 375.8 612.1 365.8 C 606.4 360.5 601.8 354.2 595.7 349.2 C 590.7 344.5 585.5 339.8 579.1 336.9 C 569.9 331.2 560.2 326.4 549.8 323.4 C 542.1 320.1 533.0 323.2 525.9 318.0 C 527.5 317.0 528.9 315.2 531.0 315.5 C 535.5 315.7 540.0 316.9 544.5 316.2 Z"
     id="path198" />
  <path
     fill="#9cead8"
     stroke="#9cead8"
     stroke-width="0.09375"
     d=" M 477.5 327.4 C 486.0 325.4 493.3 320.2 501.5 317.4 C 498.8 322.2 493.0 323.3 488.3 325.5 C 483.5 327.1 478.9 330.4 473.6 329.7 C 468.0 329.0 462.5 327.8 457.4 325.6 C 457.4 325.6 457.6 325.6 457.6 325.5 C 464.3 325.4 470.8 328.1 477.5 327.4 Z"
     id="path200" />
  <path
     fill="#050305"
     stroke="#050305"
     stroke-width="0.09375"
     d=" M 688.2 317.3 C 689.4 316.8 691.2 318.6 690.7 319.8 C 689.4 320.3 687.7 318.6 688.2 317.3 Z"
     id="path202" />
  <path
     fill="#050305"
     stroke="#050305"
     stroke-width="0.09375"
     d=" M 458.8 324.1 C 460.3 322.0 462.1 320.2 464.2 318.7 C 462.6 320.7 460.8 322.5 458.8 324.1 Z"
     id="path204" />
  <path
     fill="#fcfefc"
     stroke="#fcfefc"
     stroke-width="0.09375"
     d=" M 503.5 325.3 C 508.1 323.9 511.9 320.5 516.5 319.1 C 518.6 321.9 520.3 326.0 524.2 326.8 C 529.7 327.9 535.4 328.1 541.0 328.8 C 549.9 329.9 557.3 335.3 565.5 338.4 C 580.6 344.4 592.2 356.3 603.3 367.7 C 607.3 371.7 611.9 375.4 614.6 380.5 C 611.3 380.0 607.9 379.2 604.5 379.4 C 603.2 381.2 602.5 383.4 601.7 385.5 C 598.7 385.3 595.5 385.6 593.2 387.9 C 594.1 390.9 595.0 394.0 595.9 397.1 C 592.9 396.9 588.6 394.1 586.6 397.4 C 585.2 403.5 587.9 409.3 590.4 414.7 C 590.7 416.0 592.5 418.6 590.1 418.9 C 588.7 418.5 587.5 417.5 586.5 416.5 C 581.3 411.3 576.8 405.4 574.6 398.3 C 572.3 390.8 568.2 384.1 564.8 377.1 C 562.3 371.8 559.9 366.4 556.0 362.0 C 548.9 353.9 542.1 344.9 532.1 340.2 C 526.3 338.4 520.3 337.0 514.4 335.7 C 507.3 334.1 499.7 334.2 493.0 331.1 C 495.2 327.2 499.7 326.6 503.5 325.3 Z"
     id="path206" />
  <path
     fill="#050305"
     stroke="#050305"
     stroke-width="0.09375"
     d=" M 229.2 319.6 C 230.5 327.8 230.9 336.2 232.0 344.5 C 232.7 343.8 233.4 343.0 234.1 342.2 C 233.5 344.3 232.8 346.4 232.2 348.4 C 233.9 349.2 235.6 349.9 237.3 350.7 C 235.4 350.8 233.5 350.9 231.5 351.0 C 232.0 352.8 232.5 354.6 232.9 356.4 C 231.6 354.9 230.3 353.4 229.0 352.0 C 226.7 357.2 223.7 362.2 221.2 367.4 C 218.2 375.8 213.1 383.3 209.0 391.2 C 211.9 383.7 216.9 377.2 219.9 369.7 C 222.3 363.7 225.7 358.3 228.2 352.3 C 226.6 353.3 225.1 354.3 223.5 355.3 C 224.6 353.6 225.7 352.1 226.8 350.5 C 224.9 349.7 222.9 348.9 221.1 348.0 C 223.1 347.8 225.2 347.8 227.2 347.7 C 226.8 345.4 226.3 343.1 225.9 340.8 C 227.6 342.8 228.4 345.8 231.1 346.4 C 231.6 337.4 229.1 328.5 229.2 319.6 Z"
     id="path208" />
  <path
     fill="#050305"
     stroke="#050305"
     stroke-width="0.09375"
     d=" M 510.4 323.3 C 511.9 323.2 514.5 324.2 514.7 325.8 C 513.3 326.0 510.4 324.9 510.4 323.3 Z"
     id="path210" />
  <path
     fill="#c8c9c8"
     stroke="#c8c9c8"
     stroke-width="0.09375"
     d=" M 692.3 322.8 C 695.2 324.3 697.8 326.4 699.7 329.1 C 696.6 327.8 693.8 325.8 692.3 322.8 Z"
     id="path212" />
  <path
     fill="#54a68e"
     stroke="#54a68e"
     stroke-width="0.09375"
     d=" M 457.4 325.6 C 457.4 325.6 457.6 325.6 457.6 325.5 C 457.6 325.6 457.4 325.6 457.4 325.6 Z"
     id="path214" />
  <path
     fill="#050305"
     stroke="#050305"
     stroke-width="0.09375"
     d=" M 518.4 326.9 C 519.4 326.0 521.2 327.5 520.8 328.7 C 519.8 329.3 517.8 328.1 518.4 326.9 Z"
     id="path216" />
  <path
     fill="#050305"
     stroke="#050305"
     stroke-width="0.09375"
     d=" M 521.8 329.8 C 526.1 331.9 530.2 334.5 534.2 337.2 C 529.8 335.1 525.7 332.5 521.8 329.8 Z"
     id="path218" />
  <path
     fill="#050305"
     stroke="#050305"
     stroke-width="0.09375"
     d=" M 700.3 330.2 C 701.5 329.8 702.6 331.1 703.3 331.9 C 704.0 332.4 704.2 334.6 702.9 333.7 C 701.9 332.7 699.9 331.7 700.3 330.2 Z"
     id="path220" />
  <path
     fill="#050305"
     stroke="#050305"
     stroke-width="0.09375"
     d=" M 431.1 333.8 C 433.3 337.0 435.7 340.0 438.0 343.1 C 441.3 340.3 444.1 336.9 448.2 335.4 C 445.3 338.2 441.1 342.2 442.5 346.5 C 446.3 347.5 450.1 349.0 454.1 348.3 C 450.2 350.7 445.6 350.8 441.1 350.8 C 442.0 354.2 442.3 357.7 442.7 361.1 C 440.7 358.3 439.1 355.1 436.9 352.5 C 433.3 353.1 431.0 357.0 428.4 359.4 C 429.3 355.9 430.6 352.6 432.7 349.8 C 429.4 348.2 425.9 346.8 422.5 345.4 C 426.1 345.0 429.8 345.0 433.4 345.0 C 432.8 341.2 431.7 337.6 431.1 333.8 Z"
     id="path222" />
  <path
     fill="#050305"
     stroke="#050305"
     stroke-width="0.09375"
     d=" M 705.6 337.1 C 707.4 338.0 709.1 339.3 710.8 340.4 C 710.7 339.5 710.5 337.7 710.4 336.8 C 712.5 339.2 714.5 341.7 716.3 344.4 C 717.8 342.0 719.7 339.8 722.4 338.7 C 721.1 341.4 719.8 344.1 718.4 346.8 C 721.7 348.1 725.2 349.1 728.4 350.6 C 724.9 350.8 721.4 350.7 717.9 350.8 C 718.6 354.0 719.3 357.2 719.6 360.4 C 717.9 357.6 717.2 354.2 714.4 352.1 C 711.9 354.1 709.7 356.4 707.0 358.2 C 708.2 355.2 710.0 352.7 711.7 350.0 C 708.8 348.9 705.6 348.0 703.0 346.2 C 706.1 345.9 709.3 346.0 712.4 346.0 C 711.9 344.3 711.8 342.5 710.8 341.1 C 709.2 339.6 707.1 338.6 705.6 337.1 Z"
     id="path224" />
  <path
     fill="#050305"
     stroke="#050305"
     stroke-width="0.09375"
     d=" M 534.6 338.2 C 538.7 339.4 542.7 341.3 546.1 343.9 C 554.6 350.5 564.8 354.3 573.4 360.6 C 576.0 362.6 579.0 364.0 581.4 366.1 C 579.5 365.3 577.7 364.2 576.0 363.0 C 569.7 358.3 562.9 354.4 556.0 350.8 C 548.7 346.8 542.5 341.1 534.6 338.2 Z"
     id="path226" />
  <path
     fill="#54a68e"
     stroke="#54a68e"
     stroke-width="0.09375"
     d=" M 455.7 349.2 C 456.3 348.2 458.7 348.4 458.4 349.8 C 457.8 350.8 455.4 350.6 455.7 349.2 Z"
     id="path228" />
  <path
     fill="#54a68e"
     stroke="#54a68e"
     stroke-width="0.09375"
     d=" M 460.6 350.3 C 461.6 349.4 463.4 349.4 464.4 350.3 C 464.4 351.8 460.6 351.8 460.6 350.3 Z"
     id="path230" />
  <path
     fill="#54a68e"
     stroke="#54a68e"
     stroke-width="0.09375"
     d=" M 466.6 351.2 C 467.2 350.2 469.7 350.4 469.4 351.8 C 468.8 352.8 466.4 352.6 466.6 351.2 Z"
     id="path232" />
  <path
     fill="#c8c9c8"
     stroke="#c8c9c8"
     stroke-width="0.09375"
     d=" M 470.3 352.3 C 474.1 351.8 478.0 351.4 481.7 352.7 C 477.9 353.3 474.1 353.3 470.3 352.3 Z"
     id="path234" />
  <path
     fill="#54a68e"
     stroke="#54a68e"
     stroke-width="0.09375"
     d=" M 482.7 353.3 C 483.7 352.4 485.5 352.4 486.4 353.3 C 486.4 354.8 482.7 354.8 482.7 353.3 Z"
     id="path236" />
  <path
     fill="#54a68e"
     stroke="#54a68e"
     stroke-width="0.09375"
     d=" M 488.6 354.3 C 489.6 353.4 491.4 353.4 492.4 354.3 C 492.4 355.8 488.6 355.8 488.6 354.3 Z"
     id="path238" />
  <path
     fill="#050305"
     stroke="#050305"
     stroke-width="0.09375"
     d=" M 707.9 372.4 C 710.0 366.1 712.6 359.8 715.1 353.7 C 713.4 360.1 710.7 366.3 707.9 372.4 Z"
     id="path240" />
  <path
     fill="#54a68e"
     stroke="#54a68e"
     stroke-width="0.09375"
     d=" M 494.6 355.2 C 495.2 354.2 497.7 354.4 497.4 355.8 C 496.8 356.8 494.3 356.6 494.6 355.2 Z"
     id="path242" />
  <path
     fill="#54a68e"
     stroke="#54a68e"
     stroke-width="0.09375"
     d=" M 499.6 356.3 C 500.6 355.4 502.4 355.4 503.4 356.3 C 503.4 357.8 499.6 357.8 499.6 356.3 Z"
     id="path244" />
  <path
     fill="#54a68e"
     stroke="#54a68e"
     stroke-width="0.09375"
     d=" M 505.7 357.2 C 506.3 356.2 508.7 356.4 508.4 357.8 C 507.8 358.8 505.4 358.6 505.7 357.2 Z"
     id="path246" />
  <path
     fill="#54a68e"
     stroke="#54a68e"
     stroke-width="0.09375"
     d=" M 510.6 358.3 C 511.6 357.4 513.4 357.4 514.4 358.3 C 514.4 359.8 510.6 359.8 510.6 358.3 Z"
     id="path248" />
  <path
     fill="#54a68e"
     stroke="#54a68e"
     stroke-width="0.09375"
     d=" M 515.3 359.0 C 518.5 358.7 521.5 359.5 524.5 360.4 C 525.6 364.9 527.1 369.3 528.1 373.9 C 529.3 379.1 531.4 384.1 531.8 389.4 C 531.0 388.4 530.3 387.3 529.5 386.3 C 529.7 384.8 529.7 383.3 529.3 381.8 C 527.3 375.0 525.6 368.0 523.7 361.2 C 520.9 360.5 518.1 359.9 515.3 359.0 Z"
     id="path250" />
  <path
     fill="#050305"
     stroke="#050305"
     stroke-width="0.09375"
     d=" M 582.9 360.3 C 584.7 362.6 586.1 365.1 587.3 367.6 C 590.3 366.1 592.7 363.7 595.3 361.7 C 594.1 364.7 592.2 367.3 590.6 370.0 C 594.0 371.3 597.4 372.3 600.6 373.9 C 597.1 374.1 593.5 374.0 590.0 374.1 C 590.6 377.2 591.5 380.3 592.1 383.4 C 590.2 381.1 588.2 378.7 586.5 376.2 C 584.5 378.3 582.0 379.9 579.4 381.3 C 581.0 378.7 582.6 376.0 584.0 373.2 C 580.7 372.0 577.4 371.1 574.3 369.4 C 577.7 369.2 581.1 369.3 584.5 369.2 C 583.6 366.3 582.9 363.4 582.9 360.3 Z"
     id="path252" />
  <path
     fill="#050305"
     stroke="#050305"
     stroke-width="0.09375"
     d=" M 701.8 390.7 C 704.4 384.9 704.7 378.2 708.1 372.7 C 706.7 377.2 704.5 381.5 703.8 386.2 C 699.6 398.8 693.5 410.8 690.4 423.7 C 688.9 428.6 686.5 433.2 684.9 438.1 C 682.9 444.2 679.5 449.8 678.7 456.3 C 681.1 454.4 683.2 452.3 685.6 450.5 C 684.3 454.6 681.6 458.1 679.6 461.9 C 683.7 463.6 688.2 464.5 692.1 466.7 C 687.7 467.3 683.2 467.2 678.8 467.2 C 679.6 471.4 680.9 475.5 681.2 479.8 C 678.5 476.6 677.9 472.2 674.8 469.4 C 670.9 471.2 668.1 474.5 664.9 477.2 C 665.7 473.3 668.1 470.1 670.0 466.7 C 666.5 464.1 662.1 463.1 658.2 461.2 C 662.6 460.9 666.9 460.8 671.2 460.7 C 670.2 456.6 669.0 452.5 668.7 448.2 C 671.4 451.6 673.3 455.5 676.2 458.7 C 679.6 456.9 678.4 452.7 679.8 449.8 C 682.9 442.4 685.4 434.8 688.6 427.5 C 691.2 421.1 692.2 414.1 695.0 407.8 C 697.5 402.2 699.2 396.3 701.8 390.7 Z"
     id="path254" />
  <path
     fill="#050305"
     stroke="#050305"
     stroke-width="0.09375"
     d=" M 527.7 384.0 C 528.2 384.6 529.1 385.7 529.5 386.3 C 530.3 387.3 531.0 388.4 531.8 389.4 C 532.5 390.6 533.2 391.7 534.0 392.9 C 536.8 390.5 539.3 387.8 542.3 385.6 C 541.0 389.1 538.9 392.3 536.9 395.5 C 540.7 396.8 544.6 397.9 548.1 399.8 C 544.1 400.1 540.2 400.1 536.2 400.3 C 537.0 403.9 538.0 407.3 538.4 410.9 C 536.1 408.3 534.5 405.2 532.8 402.1 C 529.9 404.6 526.6 406.7 523.5 409.1 C 525.2 405.7 527.4 402.6 529.0 399.2 C 525.6 398.0 522.2 396.9 519.1 395.0 C 522.6 394.4 526.2 394.5 529.7 394.5 C 528.8 391.1 528.0 387.6 527.7 384.0 Z"
     id="path256" />
  <path
     fill="#050305"
     stroke="#050305"
     stroke-width="0.09375"
     d=" M 196.5 412.2 C 202.4 407.4 204.5 399.6 208.1 393.2 C 206.7 398.0 204.0 402.4 201.7 406.9 C 202.7 406.4 204.5 405.6 205.5 405.1 C 203.8 408.4 202.1 411.7 200.5 415.0 C 203.8 416.1 207.1 417.4 210.3 418.7 C 206.8 418.7 203.3 418.8 199.8 418.9 C 200.5 422.9 201.5 426.7 202.1 430.7 C 199.5 427.5 197.6 424.1 195.4 420.7 C 193.0 423.7 190.2 426.4 187.0 428.6 C 188.6 425.2 190.4 421.8 192.1 418.4 C 188.5 417.3 184.8 416.0 181.4 414.4 C 185.3 413.9 189.2 414.0 193.2 414.0 C 192.5 410.2 191.7 406.6 190.9 402.9 C 193.6 405.4 195.0 408.9 196.5 412.2 Z"
     id="path258" />
  <path
     fill="#fcfefc"
     stroke="#fcfefc"
     stroke-width="0.09375"
     d=" M 631.0 421.9 C 632.5 417.0 629.1 412.3 630.4 407.4 C 634.8 411.0 639.3 414.6 643.8 418.3 C 646.0 419.9 646.6 423.5 644.4 425.4 C 641.5 428.4 637.1 428.4 633.3 427.9 C 629.1 427.3 624.6 427.9 620.6 426.4 C 619.6 423.7 617.6 420.0 619.9 417.6 C 623.4 419.7 626.7 422.4 631.0 421.9 Z"
     id="path260" />
  <path
     fill="#54a68e"
     stroke="#54a68e"
     stroke-width="0.09375"
     d=" M 550.5 424.1 C 551.2 419.6 554.9 415.6 559.5 415.0 C 564.6 422.9 567.7 432.0 573.1 439.7 C 575.0 436.6 576.5 433.4 578.7 430.6 C 579.3 437.3 578.5 444.6 574.1 449.9 C 571.8 447.5 569.7 444.9 568.5 441.7 C 565.6 434.6 562.3 427.5 558.1 421.1 C 556.3 422.7 554.4 424.3 553.6 426.6 C 550.3 436.0 551.9 446.3 548.7 455.7 C 548.1 455.6 547.0 455.5 546.4 455.5 C 541.7 447.0 540.9 437.3 538.4 428.2 C 536.7 428.2 535.0 428.9 534.8 430.8 C 533.2 437.8 531.1 444.7 530.4 451.9 C 530.2 453.3 530.2 455.0 529.1 456.1 C 527.9 456.5 526.6 456.7 525.4 456.9 C 523.5 453.8 521.9 450.5 521.5 446.9 C 520.9 442.8 520.8 438.5 518.1 435.2 C 512.1 445.2 510.4 457.0 507.5 468.1 C 506.2 467.4 504.5 466.8 504.0 465.2 C 501.9 460.0 501.0 454.4 500.0 448.8 C 499.5 446.6 500.2 444.3 500.8 442.2 C 502.3 445.8 503.4 449.6 504.6 453.4 C 505.2 453.7 506.6 454.3 507.3 454.6 C 509.9 446.8 511.2 438.7 514.3 431.1 C 516.5 425.8 517.7 419.7 522.2 415.7 C 525.6 421.7 521.5 428.6 521.8 435.0 C 522.1 439.1 522.5 444.4 527.0 445.9 C 530.3 437.4 532.0 428.4 534.9 419.7 C 535.6 417.9 537.4 416.8 538.8 415.5 C 539.5 415.7 540.8 416.3 541.5 416.5 C 541.8 425.3 541.3 435.2 546.9 442.5 C 549.3 436.6 549.2 430.2 550.5 424.1 Z"
     id="path262" />
  <path
     fill="#9cead8"
     stroke="#9cead8"
     stroke-width="0.09375"
     d=" M 160.1 461.2 C 160.9 456.1 162.1 450.4 166.5 447.0 C 165.1 450.3 163.8 453.6 162.5 456.9 C 163.6 457.0 164.8 457.1 166.0 457.2 C 164.4 459.1 162.5 460.6 160.1 461.2 Z"
     id="path264" />
  <path
     fill="#050305"
     stroke="#050305"
     stroke-width="0.09375"
     d=" M 660.3 470.7 C 663.1 469.8 665.6 468.2 668.2 466.9 C 665.9 468.6 663.4 470.8 660.3 470.7 Z"
     id="path266" />
  <path
     fill="#050305"
     stroke="#050305"
     stroke-width="0.09375"
     d=" M 632.8 485.0 C 642.2 481.4 650.4 475.4 659.4 471.0 C 651.5 476.1 643.4 480.8 634.8 484.6 C 626.8 488.5 619.7 493.8 611.5 497.2 C 603.1 500.7 596.0 506.6 587.5 510.0 C 591.3 507.2 595.9 505.7 599.8 503.0 C 603.3 500.6 607.1 498.6 611.1 497.2 C 618.5 493.5 625.6 489.0 632.8 485.0 Z"
     id="path268" />
  <path
     fill="#54a68e"
     stroke="#54a68e"
     stroke-width="0.09375"
     d=" M 456.8 505.8 C 461.7 505.0 466.7 502.6 471.6 504.8 C 463.8 510.3 453.5 507.9 445.1 512.0 C 441.1 514.0 440.2 520.4 444.0 523.2 C 452.6 530.2 464.1 531.1 474.5 533.8 C 483.1 536.0 491.9 537.0 500.4 539.7 C 508.4 542.2 517.3 541.3 524.9 545.2 C 520.1 547.1 515.0 545.3 510.1 544.8 C 499.6 543.3 489.3 540.5 479.1 537.7 C 469.7 535.8 460.1 534.5 450.8 531.9 C 445.3 530.3 440.7 526.2 438.0 521.2 C 436.5 517.8 437.5 513.7 440.4 511.4 C 444.6 506.8 451.2 507.1 456.8 505.8 Z"
     id="path270" />
  <path
     fill="#050305"
     stroke="#050305"
     stroke-width="0.09375"
     d=" M 560.9 506.9 C 563.3 509.8 565.7 512.8 567.7 516.1 C 570.2 513.9 572.5 511.7 574.9 509.4 C 574.1 512.1 573.3 514.7 572.6 517.3 C 576.7 515.0 580.7 512.6 585.1 510.9 C 580.7 513.7 575.7 515.7 571.5 518.9 C 574.6 520.4 577.9 521.6 581.1 523.0 C 577.7 523.3 574.3 523.3 570.9 523.4 C 571.6 527.2 572.5 530.9 573.0 534.7 C 570.5 531.4 568.5 527.9 566.2 524.5 C 563.3 527.0 560.8 529.9 558.3 532.7 C 559.6 529.2 560.8 525.7 562.0 522.2 C 559.4 521.2 556.7 520.0 553.9 520.4 C 539.5 521.4 525.1 520.2 510.8 521.2 C 499.1 521.0 487.6 522.2 476.0 521.7 C 472.3 521.5 468.6 522.0 465.6 524.2 C 465.7 525.5 465.9 526.9 466.0 528.3 L 466.1 529.4 C 464.9 527.8 463.8 526.1 462.7 524.5 C 460.9 526.0 459.1 527.6 457.3 529.1 C 457.5 528.7 458.0 527.8 458.2 527.4 C 458.8 526.1 459.5 524.9 460.1 523.6 C 458.5 523.0 456.8 522.3 455.2 521.5 C 457.1 521.3 459.0 521.2 461.0 521.2 C 460.5 519.0 460.1 516.8 459.8 514.7 C 461.1 516.4 462.3 518.2 463.5 520.0 C 465.2 518.5 466.9 517.0 468.7 515.5 C 467.8 517.5 466.9 519.5 465.9 521.5 C 484.3 521.1 502.6 521.0 521.0 520.3 C 531.2 519.8 541.5 520.9 551.7 519.8 C 555.2 517.9 559.2 517.8 563.2 517.9 C 562.5 514.2 561.6 510.6 560.9 506.9 Z"
     id="path272" />
  <path
     fill="#54a68e"
     stroke="#54a68e"
     stroke-width="0.09375"
     d=" M 530.8 546.0 C 533.4 544.9 536.2 544.4 539.0 544.5 C 545.1 544.6 551.3 544.2 557.5 545.0 C 554.9 548.2 550.6 547.4 547.0 547.5 C 541.6 547.3 535.9 548.3 530.8 546.0 Z"
     id="path274" />
  <text
     xml:space="preserve"
     style="font-size:70.40000153px;font-style:normal;font-variant:normal;font-weight:normal;font-stretch:normal;text-align:start;line-height:80.00000119%;writing-mode:lr-tb;text-anchor:start;fill:#000000;fill-opacity:1;stroke:none;stroke-width:1px;stroke-linecap:butt;stroke-linejoin:miter;stroke-opacity:1;font-family:Copperplate"
     x="271.0065"
     y="57.021431"
     id="text3400"
     sodipodi:linespacing="80.000001%"><tspan
       sodipodi:role="line"
       id="tspan3402"
       x="271.0065"
       y="57.021431">Cavendish</tspan><tspan
       sodipodi:role="line"
       x="271.0065"
       y="113.34143"
       id="tspan3404">Astrophysics</tspan></text>
</svg>
